<svg width="31" height="41" viewBox="0 0 31 41" fill="none" xmlns="http://www.w3.org/2000/svg">
<path d="M9.6245 0.636008C9.42347 0.273846 8.96692 0.143221 8.60476 0.344249C8.2426 0.545276 8.11197 1.00183 8.313 1.36399L9.6245 0.636008ZM28.5791 28.2143L29.0858 27.6614L28.5791 28.2143ZM14.631 39.7051C14.5674 40.1144 14.8476 40.4978 15.2569 40.5615C15.6662 40.6251 16.0496 40.3449 16.1132 39.9356L14.631 39.7051ZM8.96875 1C8.313 1.36399 8.31307 1.36412 8.31318 1.36432C8.31327 1.36449 8.31343 1.36476 8.31361 1.36509C8.31397 1.36574 8.31449 1.36667 8.31517 1.36789C8.31652 1.37033 8.31851 1.37391 8.32113 1.37861C8.32636 1.388 8.3341 1.40188 8.3443 1.42013C8.3647 1.45663 8.39495 1.51062 8.43469 1.58121C8.51417 1.7224 8.63161 1.92999 8.78417 2.19687C9.08928 2.73059 9.53488 3.50152 10.0981 4.45254C11.2243 6.35423 12.8218 8.97774 14.7074 11.8655C18.4671 17.6235 23.4128 24.4964 28.0723 28.7672L29.0858 27.6614C24.5759 23.5278 19.7165 16.7935 15.9634 11.0455C14.0925 8.18023 12.5067 5.57599 11.3887 3.68819C10.8298 2.74446 10.3881 1.98021 10.0864 1.45244C9.93557 1.18856 9.81975 0.983835 9.7418 0.84538C9.70283 0.776154 9.67333 0.723499 9.65366 0.688305C9.64383 0.670709 9.63645 0.657478 9.63158 0.648725C9.62914 0.644348 9.62733 0.641091 9.62615 0.638966C9.62555 0.637904 9.62512 0.637125 9.62485 0.636632C9.62471 0.636385 9.62462 0.636229 9.62456 0.636105C9.62451 0.636021 9.6245 0.636008 8.96875 1ZM28.0723 28.7672C29.3897 29.9747 29.6246 32.1856 28.6673 34.1027C27.74 35.9601 25.7201 37.436 22.664 37.0745L22.4878 38.5642C26.1998 39.0031 28.812 37.1709 30.0093 34.7728C31.1769 32.4345 31.0292 29.4427 29.0858 27.6614L28.0723 28.7672ZM22.664 37.0745C19.1928 36.664 17.1946 37.1569 16.0368 37.8848C15.4544 38.2509 15.1046 38.6649 14.8989 39.0159C14.7971 39.1895 14.733 39.3437 14.6929 39.4634C14.6728 39.5232 14.6588 39.5744 14.6491 39.6153C14.6442 39.6357 14.6404 39.6535 14.6375 39.6686C14.636 39.6761 14.6348 39.6829 14.6337 39.689C14.6332 39.6921 14.6327 39.6949 14.6322 39.6976C14.632 39.699 14.6318 39.7003 14.6316 39.7015C14.6315 39.7021 14.6313 39.7031 14.6313 39.7034C14.6312 39.7043 14.631 39.7051 15.3721 39.8204C16.1132 39.9356 16.1131 39.9365 16.1129 39.9374C16.1129 39.9376 16.1128 39.9385 16.1127 39.939C16.1125 39.9401 16.1123 39.9411 16.1122 39.9421C16.1118 39.9441 16.1115 39.946 16.1112 39.9477C16.1106 39.9511 16.1101 39.954 16.1097 39.9562C16.1088 39.9607 16.1082 39.9629 16.1082 39.963C16.1082 39.9632 16.1101 39.955 16.1152 39.9398C16.1254 39.9094 16.1482 39.8509 16.193 39.7744C16.2805 39.6251 16.4626 39.3889 16.8351 39.1547C17.5872 38.6819 19.1909 38.1742 22.4878 38.5642L22.664 37.0745Z" fill="white"/>
<path d="M3.14154 29.0954C3.40671 28.7772 3.36372 28.3042 3.04551 28.0391C2.7273 27.7739 2.25438 27.8169 1.98921 28.1351L3.14154 29.0954ZM2.56537 37.4199L3.02218 36.825L2.56537 37.4199ZM10.1694 36.6194L10.7455 37.0996L10.1694 36.6194ZM17.6987 34.164C18.1109 34.2053 18.4784 33.9045 18.5196 33.4924C18.5609 33.0802 18.2602 32.7127 17.848 32.6715L17.6987 34.164ZM1.98921 28.1351C1.2016 29.0802 0.480883 30.913 0.29619 32.7578C0.112055 34.597 0.438587 36.7322 2.10857 38.0147L3.02218 36.825C1.96509 36.0132 1.62461 34.5466 1.78873 32.9072C1.9523 31.2735 2.59511 29.7511 3.14154 29.0954L1.98921 28.1351ZM2.10857 38.0147C4.77731 40.0641 8.47186 39.828 10.7455 37.0996L9.59321 36.1393C7.86477 38.2134 5.08986 38.4129 3.02218 36.825L2.10857 38.0147ZM10.7455 37.0996C13.1327 34.235 16.4965 34.0438 17.6987 34.164L17.848 32.6715C16.3822 32.5249 12.4237 32.7427 9.59321 36.1393L10.7455 37.0996Z" fill="white"/>
</svg>
