<svg width="53" height="52" viewBox="0 0 53 52" fill="none" xmlns="http://www.w3.org/2000/svg">
<path d="M24.0088 38.7773H31.7231" stroke="white" stroke-miterlimit="10"/>
<path d="M8.33911 38.7773H14.848" stroke="white" stroke-miterlimit="10" stroke-linecap="round" stroke-linejoin="round"/>
<path d="M40.8035 39.4794H42.0089C44.6607 39.4794 46.8303 37.3097 46.8303 34.6579V25.7383H28.8303V9.98828H13.1606" stroke="white" stroke-miterlimit="10" stroke-linecap="round" stroke-linejoin="round"/>
<path d="M33.1315 11.0522L28.9934 11.0521V10.5452C28.9934 9.46315 29.8706 8.58594 30.9527 8.58594H31.5687C32.6813 8.58594 33.5832 9.48787 33.5832 10.6005C33.5832 10.8499 33.381 11.0522 33.1315 11.0522Z" stroke="white" stroke-miterlimit="10" stroke-linejoin="round"/>
<path d="M35.8394 11.0527H29.0286V25.4214H46.5066L38.3813 12.4593C37.8326 11.5841 36.8723 11.0527 35.8394 11.0527Z" stroke="white"/>
<path d="M24.0086 38.8343C24.0086 41.3253 21.9997 43.4146 19.4283 43.4146C16.8568 43.4146 14.8479 41.4057 14.8479 38.8343C14.8479 36.3432 16.8568 34.2539 19.4283 34.2539C21.9997 34.2539 24.0086 36.3432 24.0086 38.8343Z" stroke="white" stroke-miterlimit="10" stroke-linejoin="round"/>
<path d="M40.8033 38.8343C40.8033 41.3253 38.7944 43.4146 36.2229 43.4146C33.7319 43.4146 31.6426 41.4057 31.6426 38.8343C31.6426 36.3432 33.6515 34.2539 36.2229 34.2539C38.7944 34.2539 40.8033 36.3432 40.8033 38.8343Z" stroke="white" stroke-miterlimit="10" stroke-linejoin="round"/>
<path d="M10.1069 16.1758H20.1516" stroke="white" stroke-miterlimit="10" stroke-linecap="round" stroke-linejoin="round"/>
<path d="M7.61621 22.5234H17.6609" stroke="white" stroke-miterlimit="10" stroke-linecap="round" stroke-linejoin="round"/>
<path d="M6.16968 28.8711H16.2143" stroke="white" stroke-miterlimit="10" stroke-linecap="round" stroke-linejoin="round"/>
</svg>
