<svg width="53" height="52" viewBox="0 0 53 52" fill="none" xmlns="http://www.w3.org/2000/svg">
<path d="M8.24455 38.1095V30.3253C8.24455 29.0712 8.4444 27.825 8.83658 26.6338L9.95895 23.2245H9.11077C7.90754 23.2245 6.93213 22.2491 6.93213 21.0459C6.93213 19.8427 7.90754 18.8672 9.11077 18.8672H11.3298L13.0787 14.2287C13.2533 13.7658 13.5017 13.3341 13.8144 12.9506C14.5072 12.1008 15.4814 11.5265 16.5646 11.3562C18.8308 11 22.9309 10.422 25.9133 10.3797C28.7822 10.3389 32.7027 10.7642 35.0113 11.0543C36.2552 11.2106 37.3891 11.8261 38.2225 12.7627C38.6734 13.2694 39.0238 13.8573 39.255 14.4949L40.9492 19.1683H43.6341C44.7542 19.1683 45.6622 20.0763 45.6622 21.1964C45.6622 22.3165 44.7542 23.2245 43.6341 23.2245H42.4585L43.4457 26.0964C43.9769 27.6416 44.2338 29.2678 44.2046 30.9015L44.072 38.3256C44.0393 40.1564 42.5458 41.6235 40.7147 41.6235C38.8603 41.6235 37.3569 40.1201 37.3569 38.2657V38.0641H15.2725V38.1095C15.2725 40.0502 13.6993 41.6235 11.7585 41.6235C9.81782 41.6235 8.24455 40.0502 8.24455 38.1095Z" stroke="white" stroke-width="1.5"/>
<circle cx="16.2272" cy="28.7545" r="2.75257" stroke="white" stroke-width="1.5"/>
<circle cx="36.3678" cy="28.7545" r="2.75257" stroke="white" stroke-width="1.5"/>
</svg>
