<svg width="53" height="52" viewBox="0 0 53 52" fill="none" xmlns="http://www.w3.org/2000/svg">
<path d="M23.1215 10.8817L22.4803 10.4927L22.4781 10.4963L23.1215 10.8817ZM7.39155 37.1417L6.74807 36.7563L6.74206 36.7667L7.39155 37.1417ZM10.5673 42.7131L10.559 43.4631H10.5673V42.7131ZM42.0273 42.7131V43.4632L42.0355 43.4631L42.0273 42.7131ZM45.203 37.1417L45.8526 36.7666L45.8464 36.7563L45.203 37.1417ZM29.473 10.8817L30.1164 10.4963L30.1142 10.4927L29.473 10.8817ZM26.2973 9.09375V8.34375V9.09375ZM22.4781 10.4963L6.74815 36.7563L8.03495 37.5271L23.7649 11.2671L22.4781 10.4963ZM6.74206 36.7667C6.35225 37.4417 6.146 38.2071 6.14382 38.9866L7.64381 38.9908C7.64526 38.4732 7.78221 37.965 8.04104 37.5168L6.74206 36.7667ZM6.14382 38.9866C6.14163 39.7661 6.3436 40.5326 6.72961 41.2098L8.03278 40.467C7.77647 40.0173 7.64236 39.5084 7.64381 38.9908L6.14382 38.9866ZM6.72961 41.2098C7.11563 41.887 7.67225 42.4514 8.34408 42.8467L9.10479 41.5539C8.65869 41.2914 8.2891 40.9167 8.03278 40.467L6.72961 41.2098ZM8.34408 42.8467C9.01592 43.242 9.77955 43.4545 10.559 43.4631L10.5755 41.9632C10.0579 41.9575 9.55089 41.8164 9.10479 41.5539L8.34408 42.8467ZM10.5673 43.4631H42.0273V41.9631H10.5673V43.4631ZM42.0355 43.4631C42.815 43.4545 43.5786 43.242 44.2504 42.8467L43.4897 41.5539C43.0436 41.8164 42.5366 41.9575 42.019 41.9632L42.0355 43.4631ZM44.2504 42.8467C44.9223 42.4514 45.4789 41.887 45.8649 41.2098L44.5617 40.467C44.3054 40.9167 43.9358 41.2914 43.4897 41.5539L44.2504 42.8467ZM45.8649 41.2098C46.2509 40.5326 46.4529 39.7661 46.4507 38.9866L44.9507 38.9908C44.9522 39.5084 44.8181 40.0173 44.5617 40.467L45.8649 41.2098ZM46.4507 38.9866C46.4485 38.2071 46.2423 37.4417 45.8525 36.7667L44.5535 37.5168C44.8123 37.965 44.9493 38.4732 44.9507 38.9908L46.4507 38.9866ZM45.8464 36.7563L30.1164 10.4963L28.8296 11.2671L44.5596 37.5271L45.8464 36.7563ZM30.1142 10.4927C29.7163 9.83672 29.156 9.29434 28.4874 8.91792L27.7515 10.225C28.1955 10.4749 28.5675 10.8351 28.8317 11.2707L30.1142 10.4927ZM28.4874 8.91792C27.8188 8.5415 27.0645 8.34375 26.2973 8.34375V9.84375C26.8067 9.84375 27.3076 9.97506 27.7515 10.225L28.4874 8.91792ZM26.2973 8.34375C25.53 8.34375 24.7757 8.5415 24.1071 8.91792L24.843 10.225C25.2869 9.97506 25.7878 9.84375 26.2973 9.84375V8.34375ZM24.1071 8.91792C23.4385 9.29434 22.8782 9.83672 22.4803 10.4927L23.7628 11.2707C24.027 10.8351 24.3991 10.4749 24.843 10.225L24.1071 8.91792Z" fill="white"/>
<path d="M27.0471 20.4277C27.0471 20.0135 26.7113 19.6777 26.2971 19.6777C25.8829 19.6777 25.5471 20.0135 25.5471 20.4277H27.0471ZM25.5471 30.6337C25.5471 31.0479 25.8829 31.3837 26.2971 31.3837C26.7113 31.3837 27.0471 31.0479 27.0471 30.6337H25.5471ZM25.5471 20.4277V30.6337H27.0471V20.4277H25.5471Z" fill="white"/>
<path d="M26.2971 36.4302C27.1257 36.4302 27.7974 35.7585 27.7974 34.9299C27.7974 34.1014 27.1257 33.4297 26.2971 33.4297C25.4686 33.4297 24.7969 34.1014 24.7969 34.9299C24.7969 35.7585 25.4686 36.4302 26.2971 36.4302Z" fill="white"/>
</svg>
