<svg width="53" height="53" viewBox="0 0 53 53" fill="none" xmlns="http://www.w3.org/2000/svg">
<path d="M43.2141 12.0527H9.78557C7.73423 12.0527 6.07129 13.7157 6.07129 15.767V38.0527C6.07129 40.1041 7.73423 41.767 9.78557 41.767H43.2141C45.2655 41.767 46.9284 40.1041 46.9284 38.0527V15.767C46.9284 13.7157 45.2655 12.0527 43.2141 12.0527Z" stroke="white" stroke-width="1.5" stroke-linecap="round" stroke-linejoin="round"/>
<path d="M27.4429 21.7051H42.0573" stroke="white" stroke-width="1.5" stroke-linecap="round"/>
<path d="M27.4429 21.7051H42.0573" stroke="white" stroke-width="1.5" stroke-linecap="round"/>
<path d="M27.4429 21.7051H42.0573" stroke="white" stroke-width="1.5" stroke-linecap="round"/>
<path d="M27.4429 26.9102H36.7537" stroke="white" stroke-width="1.5" stroke-linecap="round"/>
<path d="M27.4429 26.9102H36.7537" stroke="white" stroke-width="1.5" stroke-linecap="round"/>
<path d="M27.4429 26.9102H36.7537" stroke="white" stroke-width="1.5" stroke-linecap="round"/>
<path d="M27.4429 32.1152H42.0573" stroke="white" stroke-width="1.5" stroke-linecap="round"/>
<path d="M27.4429 32.1152H42.0573" stroke="white" stroke-width="1.5" stroke-linecap="round"/>
<path d="M27.4429 32.1152H42.0573" stroke="white" stroke-width="1.5" stroke-linecap="round"/>
<path d="M22.0858 32.6964V31.4107C22.0858 30.7287 21.8148 30.0747 21.3326 29.5924C20.8504 29.1102 20.1963 28.8393 19.5143 28.8393H14.3715C13.6895 28.8393 13.0354 29.1102 12.5532 29.5924C12.071 30.0747 11.8 30.7287 11.8 31.4107V32.6964M19.5143 23.6964C19.5143 25.1166 18.3631 26.2679 16.9429 26.2679C15.5227 26.2679 14.3715 25.1166 14.3715 23.6964C14.3715 22.2763 15.5227 21.125 16.9429 21.125C18.3631 21.125 19.5143 22.2763 19.5143 23.6964Z" stroke="white" stroke-width="1.5" stroke-linecap="round" stroke-linejoin="round"/>
</svg>
