<svg width="52" height="52" viewBox="0 0 52 52" fill="none" xmlns="http://www.w3.org/2000/svg">
<path d="M39.9233 9.56944C39.4422 9.07188 38.871 8.67719 38.2423 8.40789C37.6136 8.1386 36.9398 8 36.2592 8C35.5787 8 34.9048 8.1386 34.2762 8.40789C33.6475 8.67719 33.0763 9.07188 32.5952 9.56944L31.5967 10.6016L30.5983 9.56944C29.6265 8.56488 28.3085 8.00052 26.9342 8.00052C25.5599 8.00052 24.2419 8.56488 23.2701 9.56944C22.2984 10.574 21.7524 11.9365 21.7524 13.3572C21.7524 14.7778 22.2984 16.1403 23.2701 17.1449L24.2686 18.177L31.5967 25.7524L38.9249 18.177L39.9233 17.1449C40.4046 16.6476 40.7864 16.0571 41.0469 15.4072C41.3074 14.7572 41.4415 14.0607 41.4415 13.3572C41.4415 12.6537 41.3074 11.9571 41.0469 11.3072C40.7864 10.6573 40.4046 10.0668 39.9233 9.56944V9.56944Z" stroke="white" stroke-width="1.5" stroke-linecap="round" stroke-linejoin="round"/>
<path d="M19.0973 34.77L36.1158 34.7698M36.1158 34.7698C36.1158 33.7169 35.9544 33.2206 34.963 32.6081C33.8564 32.0909 28.7545 30.9294 27.2396 30.5098L23.0299 29.0274C20.4638 28.1238 17.6901 27.9874 15.0478 28.6348L10.5595 29.7346M36.1158 34.7698L44.9827 30.0384C45.6419 29.6867 46.4094 29.4268 47.09 29.735V29.735C47.437 29.8921 47.746 30.1234 47.9956 30.4129C48.2452 30.7024 48.4294 31.0432 48.5354 31.4117V31.4117C48.7376 32.1143 48.3149 32.8224 47.7807 33.3216C45.3617 35.5819 38.4582 42.0299 38.061 42.3705C37.5788 42.784 36.9648 43.0077 36.332 43.0005H10.5595M10.5595 29.7346V43.0005M10.5595 29.7346H6.62381C5.92793 29.7346 5.26055 30.0135 4.76849 30.5098C4.27644 31.0062 4 31.6794 4 32.3813V40.3537C4 41.0557 4.27644 41.7289 4.76849 42.2253C5.26055 42.7216 5.92793 43.0005 6.62381 43.0005H10.5595" stroke="white" stroke-width="1.5" stroke-linecap="round" stroke-linejoin="round"/>
</svg>
