<svg width="53" height="53" viewBox="0 0 53 53" fill="none" xmlns="http://www.w3.org/2000/svg">
<path d="M35.5829 43.6239V39.9096C35.5829 37.9394 34.8003 36.0499 33.4072 34.6568C32.014 33.2637 30.1245 32.481 28.1544 32.481H13.2972C11.327 32.481 9.43756 33.2637 8.04443 34.6568C6.6513 36.0499 5.86865 37.9394 5.86865 39.9096V43.6239M46.7258 43.6239V39.9096C46.7246 38.2637 46.1767 36.6647 45.1683 35.3639C44.1599 34.0631 42.748 33.1339 41.1544 32.7225M33.7258 10.4367C35.3237 10.8459 36.74 11.7752 37.7514 13.0782C38.7628 14.3812 39.3118 15.9837 39.3118 17.6332C39.3118 19.2826 38.7628 20.8852 37.7514 22.1882C36.74 23.4912 35.3237 24.4205 33.7258 24.8296M28.1544 17.6239C28.1544 21.7266 24.8285 25.0525 20.7258 25.0525C16.6231 25.0525 13.2972 21.7266 13.2972 17.6239C13.2972 13.5212 16.6231 10.1953 20.7258 10.1953C24.8285 10.1953 28.1544 13.5212 28.1544 17.6239Z" stroke="white" stroke-width="1.5" stroke-linecap="round" stroke-linejoin="round"/>
</svg>
