<svg width="37" height="21" viewBox="0 0 37 21" fill="none" xmlns="http://www.w3.org/2000/svg">
<line x1="1" y1="8" x2="1" y2="15" stroke="#007AFF" stroke-width="2" stroke-linecap="round"/>
<path d="M36 8V15" stroke="#007AFF" stroke-width="2" stroke-linecap="round"/>
<path d="M11.7501 15.093V14.2168C11.7501 13.7521 11.5514 13.3064 11.1977 12.9777C10.844 12.6491 10.3643 12.4645 9.86405 12.4645H6.88606C6.38585 12.4645 5.90612 12.6491 5.55241 12.9777C5.19871 13.3064 5 13.7521 5 14.2168V15.093M10.2611 9.75257C10.2611 10.7203 9.4167 11.5049 8.37506 11.5049C7.33341 11.5049 6.489 10.7203 6.489 9.75257C6.489 8.78479 7.33341 8.00024 8.37506 8.00024C9.4167 8.00024 10.2611 8.78479 10.2611 9.75257Z" stroke="#007AFF" stroke-width="1.5" stroke-linecap="round" stroke-linejoin="round"/>
<path d="M31.9997 15.0927V14.2166C31.9997 13.7518 31.7906 13.3061 31.4182 12.9775C31.0459 12.6489 30.5409 12.4642 30.0144 12.4642H26.8379C26.3113 12.4642 25.8063 12.6489 25.434 12.9775C25.0617 13.3061 24.8525 13.7518 24.8525 14.2166V15.0927M30.4115 9.75232C30.4115 10.7201 29.5226 11.5046 28.4261 11.5046C27.3297 11.5046 26.4408 10.7201 26.4408 9.75232C26.4408 8.78454 27.3297 8 28.4261 8C29.5226 8 30.4115 8.78454 30.4115 9.75232Z" stroke="#007AFF" stroke-width="1.5" stroke-linecap="round" stroke-linejoin="round"/>
<path d="M21.9997 15.0927V14.2166C21.9997 13.7518 21.7906 13.3061 21.4182 12.9775C21.0459 12.6489 20.5409 12.4642 20.0144 12.4642H16.8379C16.3113 12.4642 15.8063 12.6489 15.434 12.9775C15.0617 13.3061 14.8525 13.7518 14.8525 14.2166V15.0927M20.4115 9.75232C20.4115 10.7201 19.5226 11.5046 18.4261 11.5046C17.3297 11.5046 16.4408 10.7201 16.4408 9.75232C16.4408 8.78454 17.3297 8 18.4261 8C19.5226 8 20.4115 8.78454 20.4115 9.75232Z" stroke="#007AFF" stroke-width="1.5" stroke-linecap="round" stroke-linejoin="round"/>
</svg>
