
<svg width="98" height="97" viewBox="0 0 98 97" fill="none" xmlns="http://www.w3.org/2000/svg">
<path d="M48.9967 0.0712891C22.4487 0.0712891 0.902588 21.6174 0.902588 48.1654C0.902588 74.7133 22.4487 96.2594 48.9967 96.2594C75.5446 96.2594 97.0907 74.7133 97.0907 48.1654C97.0907 21.6174 75.5446 0.0712891 48.9967 0.0712891ZM48.9967 14.4995C56.9803 14.4995 63.4249 20.9441 63.4249 28.9277C63.4249 36.9113 56.9803 43.3559 48.9967 43.3559C41.013 43.3559 34.5684 36.9113 34.5684 28.9277C34.5684 20.9441 41.013 14.4995 48.9967 14.4995ZM48.9967 82.7931C36.9731 82.7931 26.3443 76.637 20.1402 67.3068C20.2845 57.7361 39.3778 52.4938 48.9967 52.4938C58.5674 52.4938 77.7088 57.7361 77.8531 67.3068C71.649 76.637 61.0202 82.7931 48.9967 82.7931Z" fill="#C4C4C4"/>
</svg>
