<svg width="30" height="21" viewBox="0 0 30 21" fill="none" xmlns="http://www.w3.org/2000/svg">
<path d="M8.17004 14.6025V13.7263C8.17004 13.2616 7.97133 12.8159 7.61762 12.4873C7.26392 12.1586 6.78419 11.974 6.28397 11.974H3.30598C2.80577 11.974 2.32604 12.1586 1.97234 12.4873C1.61863 12.8159 1.41992 13.2616 1.41992 13.7263V14.6025M6.68104 9.26209C6.68104 10.2299 5.83662 11.0144 4.79498 11.0144C3.75334 11.0144 2.90892 10.2299 2.90892 9.26209C2.90892 8.29431 3.75334 7.50977 4.79498 7.50977C5.83662 7.50977 6.68104 8.29431 6.68104 9.26209Z" stroke="#007AFF" stroke-width="1.5" stroke-linecap="round" stroke-linejoin="round"/>
<path d="M28.4196 14.6023V13.7261C28.4196 13.2613 28.2105 12.8156 27.8382 12.487C27.4658 12.1584 26.9609 11.9738 26.4343 11.9738H23.2578C22.7312 11.9738 22.2263 12.1584 21.8539 12.487C21.4816 12.8156 21.2725 13.2613 21.2725 13.7261V14.6023M26.8314 9.26184C26.8314 10.2296 25.9425 11.0142 24.8461 11.0142C23.7496 11.0142 22.8607 10.2296 22.8607 9.26184C22.8607 8.29406 23.7496 7.50952 24.8461 7.50952C25.9425 7.50952 26.8314 8.29406 26.8314 9.26184Z" stroke="#007AFF" stroke-width="1.5" stroke-linecap="round" stroke-linejoin="round"/>
<path d="M19.6835 10.7015H14.1246H9.75684M19.6835 10.7015L18.0952 9.28296M19.6835 10.7015L18.0952 12.1201M9.75684 10.7015L11.3451 12.1201M9.75684 10.7015L11.3451 9.28296" stroke="#007AFF" stroke-width="1.5" stroke-linecap="round" stroke-linejoin="round"/>
</svg>
