<svg width="29" height="29" viewBox="0 0 29 29" fill="none" xmlns="http://www.w3.org/2000/svg">
<path fill-rule="evenodd" clip-rule="evenodd" d="M19.2085 4.53952C18.4154 4.53952 17.6306 4.7008 16.8992 5.01349C16.1679 5.32617 15.5051 5.78379 14.9478 6.35903L14.4723 6.84968L13.9967 6.35891C12.8709 5.19721 11.3388 4.54005 9.7362 4.54005C8.13356 4.54005 6.60151 5.19721 5.47569 6.35891C4.35063 7.51981 3.7226 9.08946 3.7226 10.7214C3.7226 12.3533 4.35063 13.923 5.47569 15.0839L13.9338 23.8115C14.075 23.9572 14.2693 24.0395 14.4723 24.0395C14.6753 24.0395 14.8697 23.9572 15.0109 23.8115L17.648 21.0904C17.9308 20.7986 17.9298 20.3347 17.6458 20.0442C17.3507 19.7423 16.8646 19.7433 16.5708 20.0465L14.4723 22.2118L6.55285 14.04C5.70366 13.1637 5.2226 11.9704 5.2226 10.7214C5.2226 9.47237 5.70366 8.27905 6.55285 7.4028C7.40125 6.52736 8.54684 6.04005 9.7362 6.04005C10.9256 6.04005 12.0712 6.52736 12.9196 7.4028L13.9338 8.44932C14.075 8.59509 14.2693 8.67738 14.4723 8.67738C14.6753 8.67738 14.8697 8.59509 15.0109 8.44932L16.0252 7.40276C16.4453 6.969 16.943 6.62614 17.4889 6.39272C18.0348 6.15932 18.619 6.03952 19.2085 6.03952C19.7979 6.03952 20.3821 6.15932 20.928 6.39272C21.474 6.62614 21.9716 6.96901 22.3918 7.40276C22.8122 7.83637 23.147 8.35262 23.3758 8.92228C23.6046 9.49199 23.7226 10.1034 23.7226 10.7214C23.7226 11.3394 23.6046 11.9508 23.3758 12.5205C23.147 13.0902 22.8123 13.6063 22.3919 14.0399L22.0283 14.4151C21.7455 14.7069 21.7465 15.1707 22.0305 15.4613C22.3256 15.7632 22.8117 15.7622 23.1055 15.459L23.4689 15.084C24.0263 14.5091 24.4673 13.8277 24.7678 13.0795C25.0682 12.3312 25.2226 11.53 25.2226 10.7214C25.2226 9.91278 25.0682 9.11157 24.7678 8.36333C24.4673 7.61517 24.0264 6.93391 23.4691 6.35903C22.9119 5.78379 22.249 5.32617 21.5177 5.01349C20.7864 4.7008 20.0016 4.53952 19.2085 4.53952ZM18.2289 12.0654C17.9061 12.0654 17.6195 12.272 17.5174 12.5782L16.1884 16.5654H14.7289C14.3147 16.5654 13.9789 16.9012 13.9789 17.3154C13.9789 17.7296 14.3147 18.0654 14.7289 18.0654H16.7289C17.0518 18.0654 17.3384 17.8588 17.4405 17.5526L18.2289 15.1871L20.5174 22.0526C20.6195 22.3588 20.9061 22.5654 21.2289 22.5654C21.5518 22.5654 21.8384 22.3588 21.9405 22.0526L23.2695 18.0654H24.7289C25.1432 18.0654 25.4789 17.7296 25.4789 17.3154C25.4789 16.9012 25.1432 16.5654 24.7289 16.5654H22.7289C22.4061 16.5654 22.1195 16.772 22.0174 17.0782L21.2289 19.4437L18.9405 12.5782C18.8384 12.272 18.5518 12.0654 18.2289 12.0654Z" fill="#007AFF"/>
</svg>
