<svg width="25" height="24" viewBox="0 0 25 24" fill="none" xmlns="http://www.w3.org/2000/svg">
<path d="M20.0515 5.45194C19.6151 5.03753 19.0971 4.70879 18.5269 4.4845C17.9567 4.26022 17.3455 4.14478 16.7283 4.14478C16.1111 4.14478 15.5 4.26022 14.9298 4.4845C14.3596 4.70879 13.8415 5.03753 13.4052 5.45194L12.4996 6.31158L11.5941 5.45194C10.7127 4.61525 9.51736 4.14521 8.27094 4.14521C7.02451 4.14521 5.82914 4.61525 4.94778 5.45194C4.06643 6.28863 3.57129 7.42341 3.57129 8.60667C3.57129 9.78992 4.06643 10.9247 4.94778 11.7614L5.85332 12.621L12.4996 18.9305L19.1459 12.621L20.0515 11.7614C20.488 11.3472 20.8343 10.8554 21.0706 10.3141C21.3068 9.77278 21.4284 9.19259 21.4284 8.60667C21.4284 8.02074 21.3068 7.44056 21.0706 6.89926C20.8343 6.35796 20.488 5.86615 20.0515 5.45194V5.45194Z" stroke="#007AFF" stroke-width="2" stroke-linecap="round" stroke-linejoin="round"/>
</svg>
