<svg width="130" height="130" viewBox="0 0 130 130" fill="none" xmlns="http://www.w3.org/2000/svg">
<path d="M41.7857 60.1172V41.7031C41.7857 35.5985 44.2314 29.7439 48.585 25.4272C52.9385 21.1106 58.8431 18.6855 65 18.6855C71.1568 18.6855 77.0614 21.1106 81.4149 25.4272C85.7685 29.7439 88.2142 35.5985 88.2142 41.7031V60.1172M32.4999 60.1172H97.5C102.628 60.1172 106.786 64.2393 106.786 69.3242V101.549C106.786 106.634 102.628 110.756 97.5 110.756H32.4999C27.3716 110.756 23.2142 106.634 23.2142 101.549V69.3242C23.2142 64.2393 27.3716 60.1172 32.4999 60.1172Z" stroke="#E82727" stroke-width="4" stroke-linecap="round" stroke-linejoin="round"/>
</svg>
