<svg width="330" height="192" viewBox="0 0 330 192" fill="none" xmlns="http://www.w3.org/2000/svg">
  <path fill-rule="evenodd" clip-rule="evenodd" d="M107.794 81.3632L100.276 70.4618C95.3603 63.3122 87.3788 61.122 80.0445 64.892C73.4928 68.2669 65.4818 72.6374 65.4818 72.6374L64.7547 73.0068C63.6711 71.448 64.3956 69.5314 65.8976 68.3703L91.1562 48.7443C102.347 40.0161 116.013 42.1184 124.08 53.8088C126.422 56.7986 128.233 59.1052 129.83 60.8977C130.355 61.5112 130.903 62.0768 131.488 62.6309L131.505 62.6334C131.543 62.6651 131.581 62.7009 131.618 62.7368C131.656 62.7726 131.693 62.8084 131.731 62.8401C132.15 63.2482 132.573 63.6227 133.005 63.9469C136.187 66.4988 140.072 68.2822 144.404 68.9486C150.767 69.9274 156.618 67.9745 161.85 64.9123L236.848 20.145C237.797 21.4597 237.519 23.3763 236.216 24.3618L152.002 88.49C136.894 100.001 118.614 97.052 107.794 81.3632ZM78.5667 111.543H70.5667V170.423H78.5667V111.543ZM45.8967 170.423H53.8967V130.103H45.8967V136.663C44.67 134.263 42.91 132.423 40.6167 131.143C38.3234 129.809 35.63 129.143 32.5367 129.143C29.07 129.143 25.9767 130.023 23.2567 131.783C20.5367 133.543 18.4034 136.023 16.8567 139.223C15.3634 142.423 14.6167 146.103 14.6167 150.263C14.6167 154.423 15.3634 158.076 16.8567 161.223C18.35 164.316 20.43 166.716 23.0967 168.423C25.8167 170.129 28.9634 170.983 32.5367 170.983C35.63 170.983 38.3234 170.343 40.6167 169.063C42.9634 167.783 44.7234 165.943 45.8967 163.543V170.423ZM42.8567 160.823C40.8834 163.329 38.0834 164.583 34.4567 164.583C30.7767 164.583 27.8967 163.329 25.8167 160.823C23.79 158.316 22.7767 154.796 22.7767 150.263C22.7767 145.676 23.79 142.103 25.8167 139.543C27.8967 136.929 30.75 135.623 34.3767 135.623C38.0567 135.623 40.8834 136.876 42.8567 139.383C44.8834 141.889 45.8967 145.463 45.8967 150.103C45.8967 154.689 44.8834 158.263 42.8567 160.823ZM95.2104 111.543H103.21V170.423H95.2104V111.543ZM126.734 168.423C129.774 170.129 133.321 170.983 137.374 170.983C140.254 170.983 143.001 170.529 145.614 169.623C148.281 168.716 150.468 167.463 152.174 165.863L149.694 160.023C146.014 163.009 142.201 164.503 138.254 164.503C134.361 164.503 131.321 163.276 129.134 160.823C126.948 158.316 125.854 154.769 125.854 150.183C125.854 145.596 126.948 142.049 129.134 139.543C131.321 136.983 134.361 135.703 138.254 135.703C142.094 135.703 145.908 137.196 149.694 140.183L152.174 134.343C150.574 132.743 148.468 131.489 145.854 130.583C143.241 129.623 140.521 129.143 137.694 129.143C133.641 129.143 130.094 130.023 127.054 131.783C124.014 133.543 121.641 136.023 119.934 139.223C118.281 142.423 117.454 146.103 117.454 150.263C117.454 154.423 118.254 158.076 119.854 161.223C121.454 164.316 123.748 166.716 126.734 168.423ZM164.576 111.543H172.576V170.423H164.576V111.543ZM194.82 150.423H223.62V149.063C223.62 142.823 222.046 137.943 218.9 134.423C215.806 130.903 211.54 129.143 206.1 129.143C202.366 129.143 199.033 130.023 196.1 131.783C193.166 133.543 190.873 136.023 189.22 139.223C187.62 142.423 186.82 146.076 186.82 150.183C186.82 156.636 188.66 161.729 192.34 165.463C196.02 169.143 201.086 170.983 207.54 170.983C210.366 170.983 213.166 170.529 215.94 169.623C218.766 168.663 221.086 167.383 222.9 165.783L220.42 160.023C216.58 163.063 212.34 164.583 207.7 164.583C199.38 164.583 195.086 159.863 194.82 150.423ZM198.82 137.863C200.74 136.049 203.22 135.143 206.26 135.143C209.246 135.143 211.62 136.049 213.38 137.863C215.14 139.623 216.18 142.209 216.5 145.623H195.14C195.673 142.263 196.9 139.676 198.82 137.863ZM274.572 170.423H266.572V163.543C265.398 165.943 263.638 167.783 261.292 169.063C258.998 170.343 256.305 170.983 253.212 170.983C249.638 170.983 246.492 170.129 243.772 168.423C241.105 166.716 239.025 164.316 237.532 161.223C236.038 158.076 235.292 154.423 235.292 150.263C235.292 146.103 236.038 142.423 237.532 139.223C239.078 136.023 241.212 133.543 243.932 131.783C246.652 130.023 249.745 129.143 253.212 129.143C256.305 129.143 258.998 129.809 261.292 131.143C263.585 132.423 265.345 134.263 266.572 136.663V130.103H274.572V170.423ZM255.132 164.583C258.758 164.583 261.558 163.329 263.532 160.823C265.558 158.263 266.572 154.689 266.572 150.103C266.572 145.463 265.558 141.889 263.532 139.383C261.558 136.876 258.732 135.623 255.052 135.623C251.425 135.623 248.572 136.929 246.492 139.543C244.465 142.103 243.452 145.676 243.452 150.263C243.452 154.796 244.465 158.316 246.492 160.823C248.572 163.329 251.452 164.583 255.132 164.583ZM315.162 129.703C313.828 129.329 312.548 129.143 311.322 129.143C308.548 129.143 306.042 129.863 303.802 131.303C301.562 132.689 299.908 134.716 298.842 137.383L298.122 130.103H290.602C291.028 133.463 291.242 137.249 291.242 141.463V170.423H299.242V147.943C299.242 144.583 300.148 141.809 301.962 139.623C303.828 137.383 306.602 136.263 310.282 136.263C311.988 136.263 313.562 136.529 315.002 137.063L315.162 129.703Z" fill="url(#paint0_linear)"/>
  <defs>
    <linearGradient id="paint0_linear" x1="109.411" y1="-24.0772" x2="234.497" y2="189.552" gradientUnits="userSpaceOnUse">
      <stop stop-color="#3DD2BB"/>
      <stop offset="1" stop-color="#1588ED"/>
    </linearGradient>
  </defs>
</svg>