<?xml version="1.0" encoding="utf-8"?>
<!-- Generator: Adobe Illustrator 24.1.1, SVG Export Plug-In . SVG Version: 6.00 Build 0)  -->
<svg version="1.1" id="Layer_1" xmlns="http://www.w3.org/2000/svg" xmlns:xlink="http://www.w3.org/1999/xlink" x="0px" y="0px"
	 viewBox="0 0 481.06 471.62" style="enable-background:new 0 0 481.06 471.62;" xml:space="preserve">
<style type="text/css">
	.st0{fill:#FFFFFF;}
</style>
<g>
	<path class="st0" d="M240.53,430.42c-84.74,0-156.57-56.3-180.07-133.45H17.74C42.36,397.11,132.9,471.62,240.53,471.62
		c107.63,0,198.17-74.51,222.79-174.66H420.6C397.09,374.12,325.27,430.42,240.53,430.42z"/>
	<g>
		<path class="st0" d="M77.6,195.12l-18.25,2.11L55,221.52l16.38,8.32l-2.88,16.06L0,208.86l3.52-19.61l77.04-10.61L77.6,195.12z
			 M16.11,201.85l-0.09,0.52l26.2,12.99l2.99-16.69L16.11,201.85z"/>
		<path class="st0" d="M86.82,169.94l-62.71-39.21l8.54-13.66l50.58,31.63l14.94-23.9l12.13,7.58L86.82,169.94z"/>
		<path class="st0" d="M119.21,123.48l-46.39-57.6l12.54-10.1l37.42,46.46l21.95-17.68l8.97,11.14L119.21,123.48z"/>
		<path class="st0" d="M220.48,76.2c-4.97,0.69-9.55,0.53-13.76-0.49c-4.21-1.02-7.93-2.89-11.16-5.61
			c-3.23-2.72-5.94-6.3-8.13-10.74c-2.19-4.44-3.72-9.77-4.59-16c-0.86-6.15-0.85-11.74,0.02-16.75c0.87-5.01,2.48-9.33,4.82-12.98
			c2.34-3.64,5.39-6.58,9.15-8.82c3.75-2.24,8.11-3.7,13.08-4.39c6.79-0.95,12.58-0.35,17.37,1.8c4.79,2.15,8.93,6.01,12.42,11.59
			l-12.75,9.05c-1.41-2.94-3.27-5.19-5.6-6.76c-2.32-1.56-5.48-2.07-9.46-1.51c-4.69,0.65-8.24,2.7-10.64,6.14
			c-2.41,3.44-3.21,8.06-2.4,13.87l1.64,11.75c0.81,5.81,2.85,10.03,6.1,12.68c3.26,2.65,7.23,3.65,11.92,2.99
			c3.92-0.55,6.9-2.05,8.94-4.51c2.05-2.46,3.42-5.27,4.12-8.44l14.07,5.74c-1.95,5.98-4.93,10.8-8.95,14.46
			C232.67,72.95,227.27,75.25,220.48,76.2z"/>
		<path class="st0" d="M259.23,73.67L276,1.65l15.69,3.65l-13.53,58.1l27.45,6.39l-3.24,13.93L259.23,73.67z"/>
		<path class="st0" d="M313.57,88.66l41.01-61.55l41.88,27.91l-7.93,11.9l-28.48-18.98l-8.34,12.52l24.43,16.27l-7.93,11.9
			l-24.43-16.27l-8.87,13.31l28.48,18.98l-7.93,11.9L313.57,88.66z"/>
		<path class="st0" d="M390.51,164.08l11.76-14.11l-13.6-20.6l-17.6,5.27l-8.99-13.62l75.14-20.42l10.98,16.62l-48.46,60.82
			L390.51,164.08z M430.39,116.79l-0.29-0.44l-27.93,8.66l9.34,14.15L430.39,116.79z"/>
		<path class="st0" d="M404.65,203.64l-2.59-15.9l73-11.89l5.64,34.62c0.55,3.35,0.48,6.47-0.19,9.37c-0.67,2.9-1.88,5.48-3.63,7.73
			c-1.74,2.25-3.96,4.13-6.65,5.65c-2.69,1.51-5.78,2.55-9.26,3.12c-4.95,0.81-9.45,0.41-13.5-1.18c-4.05-1.59-7.28-4.49-9.68-8.68
			l-26.32,18.99l-2.88-17.67l24.69-17.12l-1.86-11.4L404.65,203.64z M447.53,213.83c0.39,2.37,1.3,4.14,2.74,5.3
			c1.44,1.16,3.35,1.55,5.72,1.16l4.6-0.75c2.37-0.39,4.05-1.36,5.05-2.92c1-1.56,1.3-3.52,0.92-5.89L463.84,194l-19.03,3.1
			L447.53,213.83z"/>
	</g>
</g>
</svg>
