<svg viewBox="0 0 180 168" fill="none" xmlns="http://www.w3.org/2000/svg">
<path d="M89.4727 152.193C60.658 152.193 35.967 134.152 26.0958 108.765C25.5542 107.364 24.602 106.159 23.364 105.308C22.1259 104.457 20.6598 104 19.1576 103.997C17.9485 104.004 16.7593 104.304 15.6918 104.872C14.6243 105.44 13.7105 106.258 13.0288 107.257C12.347 108.255 11.9177 109.404 11.7776 110.605C11.6375 111.806 11.7909 113.023 12.2245 114.152C24.2607 145.08 54.3383 167.064 89.4676 167.064C124.597 167.064 154.674 145.08 166.711 114.152C167.155 113.023 167.316 111.803 167.18 110.598C167.045 109.394 166.616 108.24 165.933 107.239C165.249 106.237 164.331 105.418 163.258 104.853C162.185 104.288 160.99 103.994 159.778 103.997C158.276 104.001 156.811 104.459 155.574 105.309C154.337 106.16 153.386 107.365 152.844 108.765C142.978 134.152 118.287 152.193 89.4727 152.193Z" fill="white"/>
<path d="M23.6267 83.342L22.1318 88.8911L0.0852051 70.5429L1.28367 66.0893L29.5597 61.3135L28.0829 66.7903L4.90484 70.0971L5.26567 68.7543L23.6267 83.342ZM17.9565 82.1565L14.3225 78.9013L17.7142 66.3084L22.4798 65.3573L17.9565 82.1565Z" fill="white"/>
<path d="M32.5931 58.0582L11.9744 42.125L15.4667 37.6069L32.4076 50.6998L39.5185 41.491L43.1963 44.3261L32.5931 58.0582Z" fill="white"/>
<path d="M47.1009 41.1252L32.9255 19.2564L37.7194 16.1636L49.3664 34.1148L59.1346 27.7874L61.6604 31.6869L47.1009 41.1252Z" fill="white"/>
<path d="M77.5318 27.7024C74.9339 28.2745 72.5636 28.2359 70.4209 27.5864C68.3012 26.9544 66.4173 25.7065 65.0085 24.0013C63.5497 22.2624 62.5282 20.0708 61.944 17.4265C61.3598 14.7821 61.3667 12.3818 61.9647 10.2254C62.5251 8.09345 63.7055 6.17574 65.3564 4.71501C67.0248 3.22359 69.158 2.19265 71.756 1.6222C73.3927 1.25127 75.079 1.15028 76.7483 1.32323C78.2478 1.45299 79.7022 1.90205 81.0138 2.64025L80.1478 7.02174C78.9583 6.46147 77.6932 6.07854 76.3926 5.88513C75.2108 5.73184 74.0113 5.78768 72.8488 6.05008C70.5928 6.55524 69.0042 7.66264 68.0833 9.37227C67.1623 11.0819 67.0128 13.3457 67.6348 16.1636C68.2568 18.9729 69.3488 20.9738 70.9106 22.1662C72.4725 23.3587 74.3857 23.7023 76.6504 23.1972C77.8149 22.9448 78.9262 22.4903 79.9339 21.8544C81.0318 21.1302 82.0174 20.2488 82.8592 19.2384L85.4958 22.8466C84.6203 24.0785 83.491 25.1085 82.1839 25.8673C80.7434 26.7281 79.1721 27.3479 77.5318 27.7024Z" fill="white"/>
<path d="M91.488 25.8672L95.3541 0.09375L101.001 0.939119L97.8309 22.112L109.341 23.8363L108.645 28.4445L91.488 25.8672Z" fill="white"/>
<path d="M113.321 30.2125L125.692 7.27417L141.507 15.8155L139.406 19.7124L128.517 13.8335L125.602 19.2434L135.813 24.7511L133.692 28.6816L123.478 23.1738L120.352 28.9728L131.239 34.844L129.138 38.7539L113.321 30.2125Z" fill="white"/>
<path d="M136.081 44.8723L132.54 40.3465L160.435 33.7124L163.27 37.3413L150.125 62.8287L146.63 58.3596L157.891 37.8336L158.749 38.9289L136.081 44.8723ZM140.432 41.0501L145.215 40.0939L153.244 50.3517L151.146 54.7332L140.432 41.0501Z" fill="white"/>
<path d="M151.151 66.9061L176.51 60.9189L179.18 72.2103C179.881 75.1794 179.764 77.5763 178.829 79.4011C177.895 81.2258 176.24 82.4192 173.865 82.981C171.611 83.5137 169.615 83.158 167.878 81.914C166.141 80.67 164.938 78.6468 164.27 75.8444L165.558 78.6227C165.77 79.4754 165.691 80.374 165.334 81.1769C164.897 82.0933 164.204 82.8639 163.339 83.396L156.192 88.3213L154.803 82.4424L162.479 77.2078C162.763 77.0348 163.008 76.8053 163.199 76.5335C163.391 76.2617 163.525 75.9535 163.592 75.6279C163.704 74.9468 163.673 74.2499 163.502 73.5814L162.651 69.9732L152.429 72.3907L151.151 66.9061ZM166.899 68.9371L168.087 73.9603C168.463 75.5497 169.011 76.6485 169.731 77.2567C170.451 77.865 171.37 78.0368 172.486 77.7722C173.626 77.5007 174.376 76.9406 174.739 76.0918C175.102 75.243 175.092 74.0101 174.711 72.3933L173.525 67.3623L166.899 68.9371Z" fill="white"/>
</svg>
