<?xml version="1.0" encoding="utf-8"?>
<!-- Generator: Adobe Illustrator 24.1.1, SVG Export Plug-In . SVG Version: 6.00 Build 0)  -->
<svg version="1.1" id="Layer_1" xmlns="http://www.w3.org/2000/svg" xmlns:xlink="http://www.w3.org/1999/xlink" x="0px" y="0px"
	 viewBox="0 0 673.99 660.77" style="enable-background:new 0 0 673.99 660.77;" xml:space="preserve">
<style type="text/css">
	.st0{fill:#0D4C70;}
</style>
<g>
	<path class="st0" d="M336.99,603.04c-118.72,0-219.36-78.87-252.29-186.97H24.85c34.49,140.31,161.34,244.7,312.14,244.7
		c150.8,0,277.65-104.39,312.14-244.7h-59.85C556.35,524.17,455.72,603.04,336.99,603.04z"/>
	<g>
		<path class="st0" d="M108.73,273.37l-25.57,2.95l-6.11,34.04L100,322.03l-4.04,22.5L0,292.62l4.93-27.47l107.94-14.87
			L108.73,273.37z M22.58,282.8l-0.13,0.73l36.7,18.2l4.19-23.38L22.58,282.8z"/>
		<path class="st0" d="M121.65,238.1l-87.86-54.93l11.96-19.13l70.87,44.31l20.93-33.48l16.99,10.63L121.65,238.1z"/>
		<path class="st0" d="M167.02,173l-64.99-80.7l17.57-14.15l52.42,65.09l30.75-24.77l12.57,15.61L167.02,173z"/>
		<path class="st0" d="M308.91,106.76c-6.96,0.97-13.39,0.74-19.28-0.68c-5.9-1.43-11.11-4.04-15.64-7.86
			c-4.53-3.81-8.33-8.83-11.39-15.05c-3.07-6.22-5.21-13.69-6.43-22.41c-1.2-8.62-1.2-16.44,0.02-23.46
			c1.22-7.01,3.47-13.07,6.76-18.18c3.28-5.1,7.56-9.22,12.81-12.36c5.26-3.13,11.37-5.18,18.33-6.15
			c9.51-1.33,17.62-0.48,24.33,2.52c6.72,3.01,12.52,8.42,17.4,16.23l-17.87,12.68c-1.97-4.12-4.59-7.28-7.84-9.47
			c-3.25-2.19-7.67-2.9-13.26-2.12c-6.57,0.92-11.54,3.78-14.91,8.6c-3.37,4.82-4.49,11.3-3.36,19.43l2.3,16.47
			c1.14,8.14,3.99,14.06,8.55,17.77c4.56,3.71,10.13,5.11,16.7,4.19c5.49-0.77,9.66-2.87,12.53-6.32c2.87-3.45,4.79-7.39,5.77-11.82
			l19.71,8.04c-2.73,8.38-6.91,15.13-12.54,20.26C325.98,102.2,318.41,105.43,308.91,106.76z"/>
		<path class="st0" d="M363.19,103.22L386.7,2.31l21.98,5.12l-18.96,81.4l38.46,8.96l-4.55,19.52L363.19,103.22z"/>
		<path class="st0" d="M439.33,124.22l57.46-86.23l58.68,39.1l-11.11,16.68l-39.9-26.59l-11.69,17.54l34.22,22.8l-11.11,16.68
			l-34.22-22.8l-12.43,18.65l39.9,26.59l-11.11,16.68L439.33,124.22z"/>
		<path class="st0" d="M547.13,229.88l16.47-19.77l-19.06-28.86l-24.65,7.39l-12.6-19.08l105.28-28.61l15.38,23.29l-67.9,85.22
			L547.13,229.88z M603,163.63l-0.41-0.62l-39.13,12.14l13.09,19.82L603,163.63z"/>
		<path class="st0" d="M566.93,285.31l-3.63-22.27l102.27-16.66l7.9,48.5c0.77,4.69,0.67,9.07-0.27,13.13
			c-0.95,4.06-2.64,7.67-5.08,10.83c-2.44,3.15-5.55,5.79-9.31,7.91c-3.77,2.12-8.09,3.57-12.98,4.37
			c-6.93,1.13-13.24,0.58-18.92-1.66c-5.68-2.23-10.2-6.29-13.56-12.15l-36.88,26.61l-4.03-24.76l34.6-23.98l-2.6-15.97
			L566.93,285.31z M627.01,299.59c0.54,3.32,1.82,5.79,3.84,7.42c2.02,1.63,4.69,2.17,8.01,1.63l6.45-1.05
			c3.32-0.54,5.68-1.9,7.08-4.09c1.4-2.18,1.83-4.94,1.29-8.26l-3.82-23.44l-26.67,4.34L627.01,299.59z"/>
	</g>
</g>
</svg>
