<svg width="330" height="191" viewBox="0 0 330 191" fill="none" xmlns="http://www.w3.org/2000/svg">
<path fill-rule="evenodd" clip-rule="evenodd" d="M108.168 81.2474L100.65 70.3461C95.7348 63.1965 87.7533 61.0063 80.419 64.7763C73.8674 68.1511 65.8563 72.5217 65.8563 72.5217L65.1292 72.8911C64.0456 71.3323 64.7701 69.4157 66.2721 68.2546L91.5307 48.6286C102.721 39.9004 116.388 42.0027 124.455 53.6931C126.796 56.6829 128.607 58.9894 130.205 60.782C130.729 61.3954 131.278 61.9611 131.863 62.5151L131.88 62.5177C131.918 62.5494 131.955 62.5852 131.993 62.621C132.03 62.6569 132.068 62.6927 132.106 62.7244C132.524 63.1325 132.948 63.507 133.379 63.8311C136.562 66.3831 140.446 68.1665 144.778 68.8328C151.141 69.8117 156.993 67.8588 162.225 64.7966L237.222 20.0293C238.171 21.344 237.894 23.2606 236.591 24.246L152.376 88.3743C137.269 99.8857 118.989 96.9363 108.168 81.2474ZM78.9412 111.427H70.9412V170.307H78.9412V111.427ZM46.2712 170.307H54.2712V129.987H46.2712V136.547C45.0445 134.147 43.2845 132.307 40.9912 131.027C38.6979 129.694 36.0045 129.027 32.9112 129.027C29.4445 129.027 26.3512 129.907 23.6312 131.667C20.9112 133.427 18.7779 135.907 17.2312 139.107C15.7379 142.307 14.9912 145.987 14.9912 150.147C14.9912 154.307 15.7379 157.96 17.2312 161.107C18.7245 164.2 20.8045 166.6 23.4712 168.307C26.1912 170.014 29.3379 170.867 32.9112 170.867C36.0045 170.867 38.6979 170.227 40.9912 168.947C43.3379 167.667 45.0979 165.827 46.2712 163.427V170.307ZM43.2312 160.707C41.2579 163.214 38.4579 164.467 34.8312 164.467C31.1512 164.467 28.2712 163.214 26.1912 160.707C24.1645 158.2 23.1512 154.68 23.1512 150.147C23.1512 145.56 24.1645 141.987 26.1912 139.427C28.2712 136.814 31.1245 135.507 34.7512 135.507C38.4312 135.507 41.2579 136.76 43.2312 139.267C45.2579 141.774 46.2712 145.347 46.2712 149.987C46.2712 154.574 45.2579 158.147 43.2312 160.707ZM95.585 111.427H103.585V170.307H95.585V111.427ZM127.109 168.307C130.149 170.014 133.695 170.867 137.749 170.867C140.629 170.867 143.375 170.414 145.989 169.507C148.655 168.6 150.842 167.347 152.549 165.747L150.069 159.907C146.389 162.894 142.575 164.387 138.629 164.387C134.735 164.387 131.695 163.16 129.509 160.707C127.322 158.2 126.229 154.654 126.229 150.067C126.229 145.48 127.322 141.934 129.509 139.427C131.695 136.867 134.735 135.587 138.629 135.587C142.469 135.587 146.282 137.08 150.069 140.067L152.549 134.227C150.949 132.627 148.842 131.374 146.229 130.467C143.615 129.507 140.895 129.027 138.069 129.027C134.015 129.027 130.469 129.907 127.429 131.667C124.389 133.427 122.015 135.907 120.309 139.107C118.655 142.307 117.829 145.987 117.829 150.147C117.829 154.307 118.629 157.96 120.229 161.107C121.829 164.2 124.122 166.6 127.109 168.307ZM164.951 111.427H172.951V170.307H164.951V111.427ZM195.194 150.307H223.994V148.947C223.994 142.707 222.421 137.827 219.274 134.307C216.181 130.787 211.914 129.027 206.474 129.027C202.741 129.027 199.408 129.907 196.474 131.667C193.541 133.427 191.248 135.907 189.594 139.107C187.994 142.307 187.194 145.96 187.194 150.067C187.194 156.52 189.034 161.614 192.714 165.347C196.394 169.027 201.461 170.867 207.914 170.867C210.741 170.867 213.541 170.414 216.314 169.507C219.141 168.547 221.461 167.267 223.274 165.667L220.794 159.907C216.954 162.947 212.714 164.467 208.074 164.467C199.754 164.467 195.461 159.747 195.194 150.307ZM199.194 137.747C201.114 135.934 203.594 135.027 206.634 135.027C209.621 135.027 211.994 135.934 213.754 137.747C215.514 139.507 216.554 142.094 216.874 145.507H195.514C196.048 142.147 197.274 139.56 199.194 137.747ZM274.946 170.307H266.946V163.427C265.773 165.827 264.013 167.667 261.666 168.947C259.373 170.227 256.68 170.867 253.586 170.867C250.013 170.867 246.866 170.014 244.146 168.307C241.48 166.6 239.4 164.2 237.906 161.107C236.413 157.96 235.666 154.307 235.666 150.147C235.666 145.987 236.413 142.307 237.906 139.107C239.453 135.907 241.586 133.427 244.306 131.667C247.026 129.907 250.12 129.027 253.586 129.027C256.68 129.027 259.373 129.694 261.666 131.027C263.96 132.307 265.72 134.147 266.946 136.547V129.987H274.946V170.307ZM255.506 164.467C259.133 164.467 261.933 163.214 263.906 160.707C265.933 158.147 266.946 154.574 266.946 149.987C266.946 145.347 265.933 141.774 263.906 139.267C261.933 136.76 259.106 135.507 255.426 135.507C251.8 135.507 248.946 136.814 246.866 139.427C244.84 141.987 243.826 145.56 243.826 150.147C243.826 154.68 244.84 158.2 246.866 160.707C248.946 163.214 251.826 164.467 255.506 164.467ZM315.536 129.587C314.203 129.214 312.923 129.027 311.696 129.027C308.923 129.027 306.416 129.747 304.176 131.187C301.936 132.574 300.283 134.6 299.216 137.267L298.496 129.987H290.976C291.403 133.347 291.616 137.134 291.616 141.347V170.307H299.616V147.827C299.616 144.467 300.523 141.694 302.336 139.507C304.203 137.267 306.976 136.147 310.656 136.147C312.363 136.147 313.936 136.414 315.376 136.947L315.536 129.587Z" fill="white"/>
</svg>
