<svg xmlns="http://www.w3.org/2000/svg" viewBox="0 0 696.63 647.84"><defs><style>.cls-1{fill:#002c83;}</style></defs><g id="Layer_2" data-name="Layer 2"><g id="Layer_1-2" data-name="Layer 1"><path class="cls-1" d="M346.82,590.14c-111.8,0-207.6-70-245.9-168.5A28.93,28.93,0,0,0,74,403.14h0a29,29,0,0,0-26.9,39.4c46.7,120,163.4,205.3,299.7,205.3s253-85.3,299.7-205.3a28.84,28.84,0,0,0-26.9-39.4h0a28.93,28.93,0,0,0-26.9,18.5C554.42,520.14,458.62,590.14,346.82,590.14Z"/><path class="cls-1" d="M91.34,323l-5.8,21.53L0,273.34l4.65-17.28,109.71-18.53-5.73,21.25L18.7,271.61l1.4-5.21Zm-22-4.6-14.1-12.63L68.4,256.91l18.49-3.69Z"/><path class="cls-1" d="M126.13,224.9l-80-61.82,13.55-17.53,65.73,50.8L153,160.62l14.27,11Z"/><path class="cls-1" d="M182.42,159.2l-55-84.85,18.6-12L191.21,132l37.9-24.55,9.8,15.13Z"/><path class="cls-1" d="M300.49,107.12q-15.12,3.33-27.59-.45a43.28,43.28,0,0,1-21-13.91q-8.49-10.12-11.89-25.51t.08-27.94a43.22,43.22,0,0,1,13.16-21.38q9.71-8.68,24.83-12a59.77,59.77,0,0,1,19.37-1.16A40.94,40.94,0,0,1,314,9.88l-3.36,17a52.22,52.22,0,0,0-14.57-4.41,39.42,39.42,0,0,0-13.75.64Q269.19,26.05,263.83,36t-1.74,26.35q3.62,16.35,12.71,23.29t22.27,4a39.58,39.58,0,0,0,12.74-5.21,52.14,52.14,0,0,0,11.35-10.15l10.23,14A41.05,41.05,0,0,1,318.54,100,59.82,59.82,0,0,1,300.49,107.12Z"/><path class="cls-1" d="M354.64,100l15-100,21.91,3.28-12.3,82.15,44.66,6.69L421.21,110Z"/><path class="cls-1" d="M439.35,116.86l48-89L548.71,61l-8.15,15.12L498.31,53.31,487,74.3l39.62,21.37-8.23,15.25L478.76,89.55l-12.13,22.5,42.24,22.78L500.72,150Z"/><path class="cls-1" d="M527.66,173.74l-13.74-17.56,108.23-25.74,11,14.08-51,98.89-13.56-17.34,43.69-79.64,3.33,4.25Zm16.88-14.83,18.56-3.71L594.25,195l-8.14,17Z"/><path class="cls-1" d="M586.13,259.23,684.52,236l10.36,43.81q4.08,17.28-1.36,27.9t-19.26,13.89q-13.12,3.1-23.23-4.14t-14-23.55l5,10.78a15.34,15.34,0,0,1-.87,9.91,20.45,20.45,0,0,1-7.74,8.61l-27.73,19.11-5.39-22.81,29.78-20.31a9.41,9.41,0,0,0,4.32-6.13,19.3,19.3,0,0,0-.35-7.94l-3.3-14-39.66,9.38Zm61.1,7.88,4.61,19.49q2.19,9.25,6.38,12.79t10.69,2q6.63-1.58,8.74-6.52t-.11-14.35L672.94,261Z"/></g></g></svg>