<svg
  width="205"
  height="212"
  viewBox="0 0 205 212"
  fill="none"
  xmlns="http://www.w3.org/2000/svg"
>
  <rect
    width="375.027"
    height="812.43"
    transform="matrix(-1 0 0 1 290.139 -163.43)"
  />
  <path
    d="M132.823 160.339C128.092 160.339 124.407 161.54 121.771 163.939C119.134 166.339 117.815 169.826 117.815 174.401V194.371C117.815 199.941 118.929 204.129 121.157 206.938C123.384 209.746 127.068 211.148 132.208 211.148C137.711 211.148 141.589 209.78 143.84 207.039C146.091 204.3 147.216 200.032 147.216 194.235V191.382H135.346V196.205C135.346 197.563 135.312 198.594 135.244 199.295C135.176 199.999 134.948 200.619 134.561 201.164C134.174 201.708 133.525 201.979 132.616 201.979C131.434 201.979 130.661 201.492 130.298 200.517C129.934 199.545 129.751 198.198 129.751 196.476V186.83H147.08C147.172 184.566 147.216 181.624 147.216 178V174.399C147.218 165.026 142.419 160.339 132.823 160.339ZM135.348 180.921H129.685V174.536C129.685 170.959 130.685 169.171 132.687 169.171C134.461 169.171 135.348 170.961 135.348 174.536V180.921Z"
    fill="white"
  />
  <path
    d="M63.0343 151.917H50.8916V210.606H63.0343V151.917Z"
    fill="white"
  />
  <path
    d="M113.449 151.917H101.306V210.606H113.449V151.917Z"
    fill="white"
  />
  <path
    d="M93.1185 163.668C90.4339 161.451 86.9557 160.341 82.6798 160.341C78.7677 160.341 75.7087 161.021 73.5048 162.378C71.2988 163.736 69.7288 165.763 68.7971 168.458C67.8653 171.152 67.3994 174.651 67.3994 178.953V194.305C67.3994 200.011 68.6035 204.246 71.0158 207.008C73.4261 209.77 77.3595 211.151 82.8181 211.151C87.0472 211.151 90.4934 209.986 93.1526 207.652C95.8138 205.319 97.1434 202.115 97.1434 198.039V189.344H85.0007L85.0688 197.701C85.1135 198.923 84.8986 199.92 84.42 200.689C83.9435 201.46 83.2266 201.844 82.2714 201.844C81.3162 201.844 80.5993 201.447 80.1228 200.655C79.6463 199.863 79.4059 198.901 79.4059 197.768V173.653C79.4059 170.891 80.3845 169.51 82.3395 169.51C83.3861 169.51 84.0903 169.862 84.454 170.563C84.8178 171.266 85.0007 172.272 85.0007 173.586V180.582H97.1434V172.973C97.1434 168.989 95.8032 165.886 93.1185 163.668Z"
    fill="white"
  />
  <path
    d="M25.5149 163.565C22.9217 161.415 19.5563 160.339 15.4187 160.339C10.2345 160.339 6.49254 161.381 4.19718 163.463C1.89968 165.547 0.753066 169.034 0.753066 173.924V175.555H12.3511V172.567C12.3511 171.571 12.5894 170.779 13.068 170.19C13.5446 169.601 14.1019 169.307 14.7401 169.307C15.4676 169.307 16.0931 169.658 16.6164 170.36C17.1397 171.063 17.4014 172.069 17.4014 173.382V178.341V178.476L14.1274 179.563C10.3983 180.74 7.62214 181.816 5.80542 182.789C3.98657 183.763 2.56553 185.292 1.5423 187.374C0.512681 189.457 0 192.445 0 196.341C0 201.096 0.716902 204.754 2.14858 207.31C3.58238 209.869 6.23088 211.148 10.0962 211.148C11.8704 211.148 13.4042 210.583 14.7018 209.45C15.9973 208.319 16.9419 206.732 17.5333 204.694V210.604H29.4036V172.702C29.4036 168.762 28.1081 165.717 25.5149 163.565ZM17.329 198.039C17.329 199.126 17.1355 200.043 16.7483 200.791C16.3611 201.538 15.7123 201.911 14.8039 201.911C13.0298 201.911 12.1427 200.441 12.1427 197.497V191.113C12.1427 189.257 12.5617 187.809 13.4042 186.767C14.2444 185.724 15.5527 184.864 17.3269 184.185V198.039H17.329Z"
    fill="white"
  />
  <path
    d="M176.007 163.565C173.414 161.415 170.048 160.339 165.911 160.339C160.727 160.339 156.985 161.381 154.689 163.463C152.392 165.547 151.245 169.034 151.245 173.924V175.555H162.843V172.567C162.843 171.571 163.082 170.779 163.56 170.19C164.037 169.601 164.594 169.307 165.232 169.307C165.96 169.307 166.585 169.658 167.109 170.36C167.632 171.063 167.894 172.069 167.894 173.382V178.341V178.476L164.62 179.563C160.89 180.74 158.114 181.816 156.298 182.789C154.479 183.763 153.058 185.292 152.034 187.374C151.011 189.459 150.499 192.447 150.499 196.341C150.499 201.096 151.215 204.754 152.647 207.31C154.079 209.869 156.729 211.148 160.595 211.148C162.369 211.148 163.903 210.583 165.2 209.45C166.496 208.319 167.44 206.732 168.032 204.694V210.604H179.902V172.702C179.896 168.762 178.598 165.717 176.007 163.565ZM167.819 198.039C167.819 199.126 167.625 200.043 167.238 200.791C166.851 201.538 166.202 201.911 165.294 201.911C163.52 201.911 162.633 200.441 162.633 197.497V191.113C162.633 189.257 163.052 187.809 163.894 186.767C164.734 185.724 166.043 184.864 167.817 184.185V198.039H167.819Z"
    fill="white"
  />
  <path
    d="M44.474 88.0404L55.8636 100.061C72.2396 117.343 95.4315 117.506 111.946 100.455L203.941 5.46283C205.362 4.00344 205.349 1.593 203.916 0.148438L119.615 69.5385C113.716 74.2979 106.855 77.8225 98.7799 77.8225C93.2957 77.8225 88.154 76.3695 83.7186 73.8298C83.1293 73.5036 82.5358 73.1308 81.9253 72.7178C81.8189 72.6458 81.7147 72.5738 81.6083 72.5018C81.604 72.4996 81.5998 72.4954 81.5955 72.4933C80.7701 71.9256 79.9767 71.3177 79.2129 70.6738C76.8878 68.7738 74.2074 66.2744 70.7399 63.0295C58.5334 50.1449 41.2193 50.1449 29.0128 63.0295L1.51946 91.9844C-0.110059 93.7043 -0.639759 96.2016 0.989758 97.9236L1.81728 97.3305C1.81728 97.3305 10.8966 90.4191 18.3592 85.0326C26.728 78.9875 37.0199 80.1736 44.474 88.0404Z"
    fill="white"
  />
  <path
    d="M46.1156 151.917H33.9729V210.606H46.1156V151.917Z"
    fill="white"
  />
  <path
    d="M196.404 166.384V160.881H184.465V210.606H196.404V172.567C196.404 171.933 197.416 171.378 199.439 170.902C201.462 170.427 203.315 170.188 205 170.188V160.271C202.817 160.271 200.986 160.805 199.507 161.868C198.029 162.931 196.995 164.437 196.404 166.384Z"
    fill="white"
  />
</svg>