<svg width="698" height="648" viewBox="0 0 698 648" fill="none" xmlns="http://www.w3.org/2000/svg">
<g clip-path="url(#clip0)">
<path d="M347.392 590.14C235.592 590.14 139.792 520.14 101.492 421.64C99.3908 416.203 95.6964 411.528 90.8928 408.227C86.0892 404.926 80.4006 403.153 74.5721 403.14C69.8811 403.168 65.2667 404.333 61.125 406.536C56.9833 408.739 53.4378 411.913 50.7926 415.788C48.1475 419.662 46.4817 424.12 45.9382 428.78C45.3947 433.439 45.9897 438.161 47.6721 442.54C94.3721 562.54 211.072 647.84 347.372 647.84C483.672 647.84 600.372 562.54 647.072 442.54C648.795 438.162 649.42 433.429 648.894 428.754C648.368 424.079 646.706 419.604 644.053 415.718C641.4 411.833 637.837 408.655 633.675 406.463C629.512 404.271 624.877 403.13 620.172 403.14C614.347 403.157 608.663 404.932 603.863 408.233C599.064 411.534 595.372 416.207 593.272 421.64C554.992 520.14 459.192 590.14 347.392 590.14Z" fill="#002C83"/>
<path d="M91.9121 323L86.1121 344.53L0.572113 273.34L5.22211 256.06L114.932 237.53L109.202 258.78L19.2721 271.61L20.6721 266.4L91.9121 323ZM69.9121 318.4L55.8121 305.77L68.9721 256.91L87.4621 253.22L69.9121 318.4Z" fill="#002C83"/>
<path d="M126.702 224.9L46.7021 163.08L60.2521 145.55L125.982 196.35L153.572 160.62L167.842 171.62L126.702 224.9Z" fill="#002C83"/>
<path d="M182.992 159.2L127.992 74.35L146.592 62.35L191.782 132L229.682 107.45L239.482 122.58L182.992 159.2Z" fill="#002C83"/>
<path d="M301.062 107.12C290.982 109.34 281.785 109.19 273.472 106.67C265.248 104.218 257.938 99.3762 252.472 92.76C246.812 86.0133 242.849 77.51 240.582 67.25C238.315 56.99 238.342 47.6767 240.662 39.31C242.837 31.0382 247.417 23.5976 253.822 17.93C260.295 12.1433 268.572 8.14333 278.652 5.93C285.002 4.49082 291.545 4.09899 298.022 4.77C303.84 5.27348 309.483 7.0158 314.572 9.88L311.212 26.88C306.597 24.7062 301.688 23.2204 296.642 22.47C292.057 21.8753 287.402 22.0919 282.892 23.11C274.139 25.07 267.975 29.3667 264.402 36C260.829 42.6333 260.249 51.4167 262.662 62.35C265.075 73.25 269.312 81.0133 275.372 85.64C281.432 90.2667 288.855 91.6 297.642 89.64C302.16 88.6607 306.472 86.8974 310.382 84.43C314.642 81.6203 318.466 78.2005 321.732 74.28L331.962 88.28C328.565 93.0596 324.183 97.056 319.112 100C313.523 103.34 307.426 105.745 301.062 107.12Z" fill="#002C83"/>
<path d="M355.212 100L370.212 0L392.122 3.28L379.822 85.43L424.482 92.12L421.782 110L355.212 100Z" fill="#002C83"/>
<path d="M439.922 116.86L487.922 27.86L549.282 61L541.132 76.12L498.882 53.31L487.572 74.3L527.192 95.67L518.962 110.92L479.332 89.55L467.202 112.05L509.442 134.83L501.292 150L439.922 116.86Z" fill="#002C83"/>
<path d="M528.232 173.74L514.492 156.18L622.722 130.44L633.722 144.52L582.722 243.41L569.162 226.07L612.852 146.43L616.182 150.68L528.232 173.74ZM545.112 158.91L563.672 155.2L594.822 195L586.682 212L545.112 158.91Z" fill="#002C83"/>
<path d="M586.702 259.23L685.092 236L695.452 279.81C698.172 291.33 697.719 300.63 694.092 307.71C690.465 314.79 684.045 319.42 674.832 321.6C666.085 323.667 658.342 322.287 651.602 317.46C644.862 312.633 640.195 304.783 637.602 293.91L642.602 304.69C643.421 307.998 643.115 311.485 641.732 314.6C640.035 318.156 637.348 321.145 633.992 323.21L606.262 342.32L600.872 319.51L630.652 299.2C631.754 298.529 632.706 297.638 633.449 296.584C634.192 295.529 634.711 294.333 634.972 293.07C635.408 290.428 635.288 287.724 634.622 285.13L631.322 271.13L591.662 280.51L586.702 259.23ZM647.802 267.11L652.412 286.6C653.872 292.767 655.999 297.03 658.792 299.39C661.585 301.75 665.149 302.417 669.482 301.39C673.902 300.337 676.815 298.163 678.222 294.87C679.629 291.577 679.592 286.793 678.112 280.52L673.512 261L647.802 267.11Z" fill="#002C83"/>
</g>
<defs>
<clipPath id="clip0">
<rect x="0.572113" width="696.63" height="647.84" fill="white"/>
</clipPath>
</defs>
</svg>
