<svg width="29" height="29" viewBox="0 0 29 29" fill="none" xmlns="http://www.w3.org/2000/svg">
<path d="M23.6008 12.4931C23.6008 19.4931 14.6008 25.4931 14.6008 25.4931C14.6008 25.4931 5.60077 19.4931 5.60077 12.4931C5.60077 10.1062 6.54898 7.81698 8.23681 6.12915C9.92464 4.44133 12.2138 3.49312 14.6008 3.49312C16.9877 3.49312 19.2769 4.44133 20.9647 6.12915C22.6526 7.81698 23.6008 10.1062 23.6008 12.4931Z" stroke="#007AFF" stroke-width="1.5" stroke-linecap="round" stroke-linejoin="round"/>
<path d="M14.6008 15.4931C16.2576 15.4931 17.6008 14.15 17.6008 12.4931C17.6008 10.8363 16.2576 9.49312 14.6008 9.49312C12.9439 9.49312 11.6008 10.8363 11.6008 12.4931C11.6008 14.15 12.9439 15.4931 14.6008 15.4931Z" stroke="#007AFF" stroke-width="1.5" stroke-linecap="round" stroke-linejoin="round"/>
</svg>
