<svg width="241" height="239" viewBox="0 0 241 239" fill="none" xmlns="http://www.w3.org/2000/svg">
<path fill-rule="evenodd" clip-rule="evenodd" d="M193.83 72.3564C193.401 71.3258 192.16 70.9402 191.163 71.4403C190.229 71.9083 189.775 73.0205 190.175 73.9856C193.863 82.8937 195.814 92.5112 195.814 102.328C195.814 131.296 177.003 158.458 157.795 178.582C148.233 188.6 138.665 196.78 131.484 202.455C127.895 205.292 124.907 207.5 122.82 208.996C121.534 209.918 119.807 209.918 118.521 208.996C116.434 207.5 113.446 205.292 109.857 202.455C102.677 196.78 93.1079 188.6 83.5461 178.582C64.3387 158.458 45.5278 131.296 45.5278 102.328C45.5278 82.5547 53.441 63.5887 67.5314 49.6026C81.6223 35.6161 100.737 27.7559 120.671 27.7559C132.571 27.7559 144.179 30.5571 154.6 35.7907C155.526 36.2554 156.657 35.896 157.197 35.0123C157.783 34.0522 157.495 32.7699 156.49 32.2637C145.491 26.7217 133.234 23.7559 120.671 23.7559C99.6855 23.7559 79.5568 32.0303 64.7135 46.7637C49.8697 61.4976 41.5278 81.4842 41.5278 102.328C41.5278 132.915 61.2884 161.055 80.6525 181.344C90.3763 191.532 100.093 199.836 107.377 205.593C111.02 208.473 114.059 210.719 116.191 212.247C117.257 213.011 118.096 213.596 118.671 213.991C118.959 214.189 119.181 214.339 119.331 214.441C119.407 214.492 119.465 214.531 119.504 214.557L119.549 214.587L119.562 214.596L119.565 214.598C119.566 214.599 119.567 214.599 120.671 212.931L120.212 213.624C119.856 214.162 120.025 214.931 120.671 214.931C121.316 214.931 121.486 214.162 121.129 213.624L120.671 212.931C121.774 214.599 121.775 214.599 121.776 214.598L121.78 214.596L121.792 214.587L121.837 214.557C121.877 214.531 121.935 214.492 122.01 214.441C122.161 214.339 122.382 214.189 122.67 213.991C123.245 213.596 124.085 213.011 125.151 212.247C127.282 210.719 130.321 208.473 133.964 205.593C141.248 199.836 150.965 191.532 160.689 181.344C180.053 161.055 199.814 132.915 199.814 102.328C199.814 91.9433 197.743 81.7718 193.83 72.3564ZM96.9564 102.328C96.9564 89.3496 107.56 78.8037 120.671 78.8037C133.782 78.8037 144.385 89.3496 144.385 102.328C144.385 115.305 133.782 125.851 120.671 125.851C107.56 125.851 96.9564 115.305 96.9564 102.328ZM120.671 74.8037C105.379 74.8037 92.9564 87.1125 92.9564 102.328C92.9564 117.543 105.379 129.851 120.671 129.851C135.963 129.851 148.385 117.543 148.385 102.328C148.385 87.1125 135.963 74.8037 120.671 74.8037Z" fill="white"/>
<path d="M186.431 23.8809V59.111M168.685 41.4959H204.178" stroke="white" stroke-width="3.5" stroke-linecap="round" stroke-linejoin="round"/>
</svg>
