<svg width="28" height="24" viewBox="0 0 28 24" fill="none" xmlns="http://www.w3.org/2000/svg">
<path d="M6.47025 9.57954C6.47025 9.57954 3.98988 9.10134 2.65303 10.044C0.922987 11.2639 0.922929 13.004 2.65297 14.2239C3.98982 15.1665 6.47025 14.6883 6.47025 14.6883" stroke="#007AFF" stroke-width="2"/>
<path d="M21.5803 9.473C21.5803 9.473 24.0608 8.97497 25.3977 9.9567C27.1278 11.2272 27.1279 13.0394 25.3977 14.3099C24.0608 15.2916 21.5804 14.6877 21.5804 14.6877" stroke="#007AFF" stroke-width="2"/>
<path d="M14.0252 7.02441C11.1278 7.02441 7.1543 9.57881 7.1543 9.57881C7.1543 9.57881 7.97485 11.2449 7.91774 12.3654C7.86953 13.3112 7.1543 14.6876 7.1543 14.6876C7.1543 14.6876 11.2537 16.2706 14.0252 16.3131C16.9896 16.3586 20.8962 14.6876 20.8962 14.6876C20.8962 14.6876 20.7635 13.3057 20.6417 12.3654C20.5012 11.281 20.8418 9.52998 20.8418 9.52998C20.8418 9.52998 16.9227 7.02441 14.0252 7.02441Z" stroke="#007AFF" stroke-width="2"/>
<path d="M9.18848 10.74C9.18848 10.74 12.2109 9.34668 14.2781 9.34668C16.3452 9.34668 19.3677 10.74 19.3677 10.74" stroke="#007AFF"/>
<path d="M9.18848 12.1339C9.18848 12.1339 12.2888 11.7192 14.2781 11.6744C16.2651 11.6296 19.3677 11.9041 19.3677 11.9041" stroke="#007AFF"/>
<path d="M9.18848 13.2947C9.18848 13.2947 11.4239 14.277 13.2602 14.4157C13.9053 14.4644 14.3973 14.4737 15.0415 14.4157C16.7007 14.2661 19.3677 13.2947 19.3677 13.2947" stroke="#007AFF"/>
</svg>
