<svg xmlns="http://www.w3.org/2000/svg" fill="#333333" viewBox="0 0 310.83 457.57"><g id="Layer_2" data-name="Layer 2"><g id="Layer_1-2" data-name="Layer 1"><g id="wG5197.tif"><path d="M153.62,0c79,.39,144,56.54,155.77,132.49,3.84,24.74-.35,48.35-8.43,71.65-12.75,36.79-30.33,71.33-49,105.35-26.61,48.51-56.1,95.26-87,141.11-6.25,9.28-12.61,9.3-18.86,0-40.85-60.88-79.65-123-111.83-189-11.46-23.51-21.61-47.53-28.88-72.74C-4,156.32-.84,124.58,12.87,94.27,37.48,39.87,80.12,8.89,139.31.89,144.74.15,150.28.19,153.62,0Zm1.59,265.36c59.95.27,109.69-49,110.12-109,.44-60.22-48.95-110.34-109-110.62C95.69,45.47,45.9,94.75,45.7,155.25,45.5,215.47,94.84,265.09,155.21,265.36Z"/><path d="M188,162.75c6.76,5.89,11.23,13.22,12.45,22.05a127.2,127.2,0,0,1,.79,19.43c-.09,5.7-3.83,9.23-9.68,9.26q-36,.18-72,0c-4.85,0-8.9-2.32-9.39-7.25-1.27-12.69-1.38-25.39,6.58-36.47,1.83-2.53,4-4.79,6.07-7.2C144.71,177.63,166.25,177.66,188,162.75Z"/><path d="M155.46,88.58a33.52,33.52,0,1,1-33.52,33.26A33.51,33.51,0,0,1,155.46,88.58Z"/></g></g></g></svg>