<svg width="25" height="21" viewBox="0 0 25 21" fill="none" xmlns="http://www.w3.org/2000/svg">
<path d="M16.2188 19.8779V17.8779C16.2188 16.8171 15.7973 15.7996 15.0472 15.0495C14.297 14.2994 13.2796 13.8779 12.2188 13.8779H5.21875C4.15788 13.8779 3.14047 14.2994 2.39032 15.0495C1.64018 15.7996 1.21875 16.8171 1.21875 17.8779V19.8779M20.2188 6.87793V12.8779M23.2188 9.87793H17.2188M12.7188 5.87793C12.7188 8.08707 10.9279 9.87793 8.71875 9.87793C6.50961 9.87793 4.71875 8.08707 4.71875 5.87793C4.71875 3.66879 6.50961 1.87793 8.71875 1.87793C10.9279 1.87793 12.7188 3.66879 12.7188 5.87793Z" stroke="white" stroke-width="2" stroke-linecap="round" stroke-linejoin="round"/>
</svg>
