<svg width="15" height="20" viewBox="0 0 15 20" fill="none" xmlns="http://www.w3.org/2000/svg">
<path d="M3.00648 10.7803L3.34853 9.50378C3.34854 9.50375 3.34855 9.50371 3.34856 9.50368C3.37147 9.41834 3.42733 9.3456 3.50386 9.30142L3.50393 9.30139L6.26675 7.70627L6.44611 7.60272L6.49971 7.40267L7.57812 3.37798L7.65808 3.07958L7.427 2.87456L6.41841 1.97969L6.41821 1.97952C6.3719 1.93847 6.33793 1.88534 6.3201 1.82607C6.30228 1.76681 6.3013 1.70375 6.31729 1.64397L6.39961 1.33674C6.42249 1.25134 6.47836 1.17854 6.55492 1.13433C6.63148 1.09013 6.72247 1.07815 6.80786 1.10103L13.2474 2.82649C13.3328 2.84938 13.4056 2.90524 13.4498 2.9818C13.494 3.05836 13.5059 3.14935 13.4831 3.23474L13.4007 3.54197C13.3847 3.60174 13.3523 3.65586 13.3073 3.69827C13.2622 3.74069 13.2062 3.76972 13.1456 3.78211L13.1453 3.78216L11.8244 4.05284L11.5218 4.11486L11.4418 4.41325L10.3634 8.43795L10.3098 8.63799L10.4134 8.81735L12.0085 11.5802L12.0085 11.5802C12.0527 11.6568 12.0647 11.7477 12.0419 11.8331C12.0419 11.8331 12.0419 11.8331 12.0419 11.8332L11.6998 13.1097C11.6769 13.1951 11.6211 13.2679 11.5445 13.3121C11.4679 13.3563 11.377 13.3683 11.2916 13.3454L8.07181 12.4827L7.58885 12.3532L7.45944 12.8362L6.61771 15.9776L6.03692 16.8572L5.97376 15.805L6.81549 12.6637L6.9449 12.1807L6.46194 12.0513L3.24218 11.1886C3.15679 11.1657 3.08399 11.1098 3.03978 11.0333C2.99558 10.9567 2.9836 10.8657 3.00648 10.7803Z" stroke="#C7C7C7"/>
</svg>
