<svg width="27" height="24" viewBox="0 0 27 24" fill="none" xmlns="http://www.w3.org/2000/svg">
<path d="M12.625 6.125V6C12.625 5.63547 12.851 5.30913 13.1922 5.18091C13.5335 5.05269 13.9185 5.14947 14.1585 5.42381L14.375 5.67123V5C14.375 4.51675 14.7668 4.125 15.25 4.125V3.875H11.3125C11.237 3.875 11.1368 3.90827 11.0429 4.01553C10.9458 4.12652 10.875 4.29931 10.875 4.5V4.81697L11.4473 6.125H12.625ZM15.9376 15.3549L12.9406 8.875H11.2893C10.9911 9.28534 10.875 9.65965 10.875 10V22.125H16.125V16C16.125 15.9016 16.0868 15.7071 15.9376 15.3549Z" fill="white" stroke="#007AFF" stroke-width="1.75" stroke-linecap="round" stroke-linejoin="round"/>
<line x1="24.7728" y1="5.39584" x2="1.39584" y2="22.2272" stroke="#007AFF" stroke-width="2" stroke-linecap="round"/>
</svg>
