<svg width="11" height="15" viewBox="0 0 11 15" fill="none" xmlns="http://www.w3.org/2000/svg">
<path d="M5.27254 12.0071C4.82676 12.0071 4.4459 12.1486 4.13066 12.4311C3.81566 12.7133 3.65723 13.055 3.65723 13.4579C3.65723 13.9118 3.8166 14.2681 4.13488 14.5273C4.4541 14.7865 4.82582 14.9173 5.25074 14.9173C5.6827 14.9173 6.05957 14.7884 6.38207 14.5327C6.70434 14.2758 6.86535 13.9179 6.86535 13.4576C6.86535 13.0547 6.71137 12.713 6.40316 12.4308C6.09496 12.1489 5.71855 12.0071 5.27184 12.0071" fill="#007AFF"/>
<path d="M9.82609 2.01961C9.41594 1.39711 8.82977 0.899297 8.08281 0.538594C7.34008 0.181172 6.475 0 5.51078 0C4.47273 0 3.54883 0.217031 2.76602 0.645234C1.98227 1.07414 1.37664 1.62445 0.966016 2.2807C0.553516 2.94023 0.34375 3.60352 0.34375 4.25273C0.34375 4.59891 0.488125 4.92211 0.77125 5.21273C1.05578 5.50523 1.40969 5.65312 1.82313 5.65312C2.52859 5.65312 3.0093 5.23922 3.25398 4.42734C3.47688 3.75586 3.7518 3.24375 4.06961 2.90437C4.36867 2.58469 4.85383 2.4225 5.51078 2.4225C6.0775 2.4225 6.52469 2.58141 6.87953 2.90883C7.22899 3.2318 7.39914 3.61664 7.39914 4.08539C7.39914 4.32211 7.34383 4.53469 7.23297 4.73578C7.11508 4.94672 6.96812 5.14055 6.79633 5.31305C6.61469 5.49492 6.31492 5.76797 5.90523 6.12703C5.42805 6.54539 5.04297 6.91172 4.76266 7.21594C4.46969 7.53211 4.23227 7.90383 4.05484 8.32031C3.87766 8.73961 3.78766 9.24 3.78766 9.80836C3.78766 10.2933 3.92289 10.6687 4.19008 10.9245C4.45445 11.1776 4.78375 11.3065 5.1693 11.3065C5.90641 11.3065 6.36953 10.9036 6.50734 10.1498C6.57719 9.83648 6.63016 9.61758 6.66531 9.49312C6.69719 9.37992 6.74336 9.26367 6.80266 9.14766C6.86031 9.03469 6.95148 8.90672 7.07453 8.7668C7.20273 8.61891 7.37594 8.44547 7.58828 8.25164C8.38258 7.54148 8.94297 7.02773 9.25375 6.72352C9.57438 6.41016 9.85398 6.03305 10.0848 5.60367C10.3225 5.16422 10.443 4.64648 10.443 4.06641C10.4434 3.33258 10.2351 2.64328 9.82492 2.01867" fill="#007AFF"/>
</svg>
