<svg width="23" height="24" viewBox="0 0 23 24" fill="none" xmlns="http://www.w3.org/2000/svg">
<path d="M11.5 15C13.1569 15 14.5 13.6569 14.5 12C14.5 10.3431 13.1569 9 11.5 9C9.84315 9 8.5 10.3431 8.5 12C8.5 13.6569 9.84315 15 11.5 15Z" stroke="white" stroke-linecap="round" stroke-linejoin="round"/>
<path d="M18.9 15C18.7669 15.3016 18.7272 15.6362 18.786 15.9606C18.8448 16.285 18.9995 16.5843 19.23 16.82L19.29 16.88C19.476 17.0657 19.6235 17.2863 19.7241 17.5291C19.8248 17.7719 19.8766 18.0322 19.8766 18.295C19.8766 18.5578 19.8248 18.8181 19.7241 19.0609C19.6235 19.3037 19.476 19.5243 19.29 19.71C19.1043 19.896 18.8837 20.0435 18.6409 20.1441C18.3981 20.2448 18.1378 20.2966 17.875 20.2966C17.6122 20.2966 17.3519 20.2448 17.1091 20.1441C16.8663 20.0435 16.6457 19.896 16.46 19.71L16.4 19.65C16.1643 19.4195 15.865 19.2648 15.5406 19.206C15.2162 19.1472 14.8816 19.1869 14.58 19.32C14.2842 19.4468 14.032 19.6572 13.8543 19.9255C13.6766 20.1938 13.5813 20.5082 13.58 20.83V21C13.58 21.5304 13.3693 22.0391 12.9942 22.4142C12.6191 22.7893 12.1104 23 11.58 23C11.0496 23 10.5409 22.7893 10.1658 22.4142C9.79071 22.0391 9.58 21.5304 9.58 21V20.91C9.57226 20.579 9.46512 20.258 9.27251 19.9887C9.0799 19.7194 8.81074 19.5143 8.5 19.4C8.19838 19.2669 7.86381 19.2272 7.53941 19.286C7.21502 19.3448 6.91568 19.4995 6.68 19.73L6.62 19.79C6.43425 19.976 6.21368 20.1235 5.97088 20.2241C5.72808 20.3248 5.46783 20.3766 5.205 20.3766C4.94217 20.3766 4.68192 20.3248 4.43912 20.2241C4.19632 20.1235 3.97575 19.976 3.79 19.79C3.60405 19.6043 3.45653 19.3837 3.35588 19.1409C3.25523 18.8981 3.20343 18.6378 3.20343 18.375C3.20343 18.1122 3.25523 17.8519 3.35588 17.6091C3.45653 17.3663 3.60405 17.1457 3.79 16.96L3.85 16.9C4.08054 16.6643 4.23519 16.365 4.294 16.0406C4.35282 15.7162 4.31312 15.3816 4.18 15.08C4.05324 14.7842 3.84276 14.532 3.57447 14.3543C3.30618 14.1766 2.99179 14.0813 2.67 14.08H2.5C1.96957 14.08 1.46086 13.8693 1.08579 13.4942C0.710714 13.1191 0.5 12.6104 0.5 12.08C0.5 11.5496 0.710714 11.0409 1.08579 10.6658C1.46086 10.2907 1.96957 10.08 2.5 10.08H2.59C2.92099 10.0723 3.242 9.96512 3.5113 9.77251C3.78059 9.5799 3.98572 9.31074 4.1 9C4.23312 8.69838 4.27282 8.36381 4.214 8.03941C4.15519 7.71502 4.00054 7.41568 3.77 7.18L3.71 7.12C3.52405 6.93425 3.37653 6.71368 3.27588 6.47088C3.17523 6.22808 3.12343 5.96783 3.12343 5.705C3.12343 5.44217 3.17523 5.18192 3.27588 4.93912C3.37653 4.69632 3.52405 4.47575 3.71 4.29C3.89575 4.10405 4.11632 3.95653 4.35912 3.85588C4.60192 3.75523 4.86217 3.70343 5.125 3.70343C5.38783 3.70343 5.64808 3.75523 5.89088 3.85588C6.13368 3.95653 6.35425 4.10405 6.54 4.29L6.6 4.35C6.83568 4.58054 7.13502 4.73519 7.45941 4.794C7.78381 4.85282 8.11838 4.81312 8.42 4.68H8.5C8.79577 4.55324 9.04802 4.34276 9.22569 4.07447C9.40337 3.80618 9.49872 3.49179 9.5 3.17V3C9.5 2.46957 9.71071 1.96086 10.0858 1.58579C10.4609 1.21071 10.9696 1 11.5 1C12.0304 1 12.5391 1.21071 12.9142 1.58579C13.2893 1.96086 13.5 2.46957 13.5 3V3.09C13.5013 3.41179 13.5966 3.72618 13.7743 3.99447C13.952 4.26276 14.2042 4.47324 14.5 4.6C14.8016 4.73312 15.1362 4.77282 15.4606 4.714C15.785 4.65519 16.0843 4.50054 16.32 4.27L16.38 4.21C16.5657 4.02405 16.7863 3.87653 17.0291 3.77588C17.2719 3.67523 17.5322 3.62343 17.795 3.62343C18.0578 3.62343 18.3181 3.67523 18.5609 3.77588C18.8037 3.87653 19.0243 4.02405 19.21 4.21C19.396 4.39575 19.5435 4.61632 19.6441 4.85912C19.7448 5.10192 19.7966 5.36217 19.7966 5.625C19.7966 5.88783 19.7448 6.14808 19.6441 6.39088C19.5435 6.63368 19.396 6.85425 19.21 7.04L19.15 7.1C18.9195 7.33568 18.7648 7.63502 18.706 7.95941C18.6472 8.28381 18.6869 8.61838 18.82 8.92V9C18.9468 9.29577 19.1572 9.54802 19.4255 9.72569C19.6938 9.90337 20.0082 9.99872 20.33 10H20.5C21.0304 10 21.5391 10.2107 21.9142 10.5858C22.2893 10.9609 22.5 11.4696 22.5 12C22.5 12.5304 22.2893 13.0391 21.9142 13.4142C21.5391 13.7893 21.0304 14 20.5 14H20.41C20.0882 14.0013 19.7738 14.0966 19.5055 14.2743C19.2372 14.452 19.0268 14.7042 18.9 15Z" stroke="white" stroke-linecap="round" stroke-linejoin="round"/>
</svg>
