<svg width="176" height="176" viewBox="0 0 176 176" fill="none" xmlns="http://www.w3.org/2000/svg">
<path d="M173.73 80.1628V88.0485C173.72 106.532 167.735 124.517 156.667 139.321C145.6 154.125 130.044 164.955 112.319 170.196C94.594 175.437 75.6497 174.808 58.3115 168.402C40.9733 161.996 26.1702 150.158 16.11 134.652C6.04975 119.146 1.2714 100.803 2.48756 82.3598C3.70372 63.9162 10.8492 46.3599 22.8584 32.3091C34.8676 18.2584 51.0971 8.46606 69.1262 4.39261C87.1554 0.319158 106.018 2.18282 122.902 9.70565M173.73 19.4772L130.873 62.3772L88.016 105.277L62.3017 79.5629" stroke="white" stroke-width="4" stroke-linecap="round" stroke-linejoin="round"/>
</svg>
