<svg width="21" height="21" viewBox="0 0 21 21" fill="none" xmlns="http://www.w3.org/2000/svg">
<path d="M4.15351 9.85534L4.83395 10.7843H3.47306L4.15351 9.85534Z" stroke="#007AFF" stroke-width="2"/>
<line x1="10.9619" y1="4.45312" x2="10.9619" y2="2.24508" stroke="#007AFF" stroke-width="2"/>
<rect x="9.52261" y="1.2521" width="4.42083" height="0.662412" rx="0.331206" stroke="#007AFF" stroke-width="0.662412"/>
<mask id="path-4-inside-1" fill="white">
<ellipse cx="11.7317" cy="12.1821" rx="1.6174" ry="1.54563"/>
</mask>
<path d="M11.349 12.1821C11.349 11.8466 11.6069 11.7277 11.7317 11.7277V15.7277C13.643 15.7277 15.349 14.2249 15.349 12.1821H11.349ZM11.7317 11.7277C11.8564 11.7277 12.1143 11.8466 12.1143 12.1821H8.11426C8.11426 14.2249 9.82034 15.7277 11.7317 15.7277V11.7277ZM12.1143 12.1821C12.1143 12.5176 11.8564 12.6365 11.7317 12.6365V8.63647C9.82034 8.63647 8.11426 10.1393 8.11426 12.1821H12.1143ZM11.7317 12.6365C11.6069 12.6365 11.349 12.5176 11.349 12.1821H15.349C15.349 10.1393 13.643 8.63647 11.7317 8.63647V12.6365Z" fill="#007AFF" mask="url(#path-4-inside-1)"/>
<rect x="11.3847" y="8.77481" width="0.69317" height="1.95648" rx="0.346585" stroke="#007AFF" stroke-width="0.69317"/>
<path d="M4.1084 11.7397C4.1084 15.7639 7.52217 19.0262 11.7333 19.0262C15.9444 19.0262 19.3581 15.7639 19.3581 11.7397C19.3581 7.71542 15.9444 4.45312 11.7333 4.45312C9.2056 4.45312 6.96521 5.62848 5.5779 7.43848" stroke="#007AFF" stroke-width="2"/>
</svg>
