<svg width="29" height="21" viewBox="0 0 29 21" fill="none" xmlns="http://www.w3.org/2000/svg">
<path d="M25 14.5V13.9121C25 13.0963 24.6488 12.3139 24.0237 11.7371C23.3986 11.1602 22.5507 10.8362 21.6667 10.8362H16.3333C15.4493 10.8362 14.6014 11.1602 13.9763 11.7371C13.3512 12.3139 13 13.0963 13 13.9121V14.5M22.3333 6.07588C22.3333 7.77464 20.8409 9.15176 19 9.15176C17.1591 9.15176 15.6667 7.77464 15.6667 6.07588C15.6667 4.37712 17.1591 3 19 3C20.8409 3 22.3333 4.37712 22.3333 6.07588Z" stroke="#007AFF" stroke-width="2" stroke-linecap="round" stroke-linejoin="round"/>
<line x1="7" y1="8" x2="11" y2="8" stroke="#007AFF" stroke-width="2" stroke-linecap="round"/>
</svg>
