<svg width="19" height="20" viewBox="0 0 19 20" fill="none" xmlns="http://www.w3.org/2000/svg">
<path d="M2.73358 9.45153L3.41403 10.3805H2.05314L2.73358 9.45153Z" stroke="#007AFF" stroke-width="2"/>
<line x1="9.54199" y1="4.04932" x2="9.54199" y2="1.84127" stroke="#007AFF" stroke-width="2"/>
<rect x="8.10269" y="0.848296" width="4.42083" height="0.662412" rx="0.331206" stroke="#007AFF" stroke-width="0.662412"/>
<mask id="path-4-inside-1" fill="white">
<ellipse cx="10.3117" cy="11.7782" rx="1.6174" ry="1.54563"/>
</mask>
<path d="M9.92913 11.7782C9.92913 11.4427 10.1869 11.3238 10.3117 11.3238V15.3238C12.223 15.3238 13.9291 13.8209 13.9291 11.7782H9.92913ZM10.3117 11.3238C10.4365 11.3238 10.6943 11.4427 10.6943 11.7782H6.69434C6.69434 13.8209 8.40041 15.3238 10.3117 15.3238V11.3238ZM10.6943 11.7782C10.6943 12.1137 10.4365 12.2325 10.3117 12.2325V8.23254C8.40041 8.23254 6.69434 9.7354 6.69434 11.7782H10.6943ZM10.3117 12.2325C10.1869 12.2325 9.92913 12.1137 9.92913 11.7782H13.9291C13.9291 9.7354 12.223 8.23254 10.3117 8.23254V12.2325Z" fill="#007AFF" mask="url(#path-4-inside-1)"/>
<rect x="9.96475" y="8.371" width="0.69317" height="1.95648" rx="0.346585" stroke="#007AFF" stroke-width="0.69317"/>
<path d="M2.68848 11.3359C2.68848 15.3601 6.10224 18.6224 10.3133 18.6224C14.5244 18.6224 17.9382 15.3601 17.9382 11.3359C17.9382 7.31161 14.5244 4.04932 10.3133 4.04932C7.78568 4.04932 5.54528 5.22467 4.15798 7.03467" stroke="#007AFF" stroke-width="2"/>
</svg>
