<svg width="24" height="20" viewBox="0 0 24 20" fill="none" xmlns="http://www.w3.org/2000/svg">
  <path d="M16.7429 18.5154V16.5154C16.7429 15.4545 16.3215 14.4371 15.5713 13.687C14.8212 12.9368 13.8038 12.5154 12.7429 12.5154H4.74292C3.68205 12.5154 2.66464 12.9368 1.91449 13.687C1.16435 14.4371 0.74292 15.4545 0.74292 16.5154V18.5154M22.7429 18.5154V16.5154C22.7423 15.6291 22.4473 14.7682 21.9043 14.0677C21.3613 13.3672 20.601 12.8669 19.7429 12.6454M15.7429 0.645381C16.6033 0.865682 17.366 1.36608 17.9106 2.06769C18.4552 2.7693 18.7508 3.63221 18.7508 4.52038C18.7508 5.40855 18.4552 6.27146 17.9106 6.97307C17.366 7.67468 16.6033 8.17508 15.7429 8.39538M12.7429 4.51538C12.7429 6.72452 10.9521 8.51538 8.74292 8.51538C6.53378 8.51538 4.74292 6.72452 4.74292 4.51538C4.74292 2.30624 6.53378 0.515381 8.74292 0.515381C10.9521 0.515381 12.7429 2.30624 12.7429 4.51538Z" stroke="#999999" stroke-linecap="round" stroke-linejoin="round"/>
</svg>
