<svg width="30" height="36" viewBox="0 0 30 36" fill="none" xmlns="http://www.w3.org/2000/svg">
  <path d="M6.63867 35.6451V27.8947H5.67188V31.2462H1.41797V27.8947H0.451172V35.6451H1.41797V32.1163H5.67188V35.6451H6.63867ZM10.8765 35.7472C12.5254 35.7472 13.5459 34.6085 13.5459 32.7501C13.5459 30.8864 12.5254 29.7531 10.8765 29.7531C9.22754 29.7531 8.20703 30.8864 8.20703 32.7501C8.20703 34.6085 9.22754 35.7472 10.8765 35.7472ZM10.8765 34.9147C9.78076 34.9147 9.16309 34.1198 9.16309 32.7501C9.16309 31.3751 9.78076 30.5856 10.8765 30.5856C11.9722 30.5856 12.5898 31.3751 12.5898 32.7501C12.5898 34.1198 11.9722 34.9147 10.8765 34.9147ZM14.9961 35.6451H15.9199V32.0573C15.9199 31.2408 16.5054 30.5856 17.2627 30.5856C17.9932 30.5856 18.4712 31.026 18.4712 31.7135V35.6451H19.395V31.923C19.395 31.1871 19.9321 30.5856 20.7378 30.5856C21.5542 30.5856 21.957 31.0045 21.957 31.8585V35.6451H22.8809V31.6437C22.8809 30.4298 22.2202 29.7531 21.0386 29.7531C20.2383 29.7531 19.5776 30.1559 19.2661 30.7682H19.1802C18.9116 30.1666 18.3638 29.7531 17.5796 29.7531C16.8062 29.7531 16.2261 30.1237 15.9629 30.7682H15.877V29.8551H14.9961V35.6451ZM28.4023 34.1466C28.1606 34.6569 27.6558 34.9308 26.9092 34.9308C25.9263 34.9308 25.2871 34.2057 25.2388 33.0616V33.0187H29.4014V32.6642C29.4014 30.8649 28.4507 29.7531 26.8877 29.7531C25.2979 29.7531 24.2773 30.9347 24.2773 32.7555C24.2773 34.587 25.2817 35.7472 26.8877 35.7472C28.1553 35.7472 29.0576 35.1349 29.3262 34.1466H28.4023ZM26.877 30.5695C27.7954 30.5695 28.4077 31.2462 28.4292 32.2721H25.2388C25.3086 31.2462 25.9531 30.5695 26.877 30.5695Z" fill="#007AFF"/>
  <path d="M11.7222 20.5934V10.5934H17.7222V20.5934M5.72217 7.59338L14.7222 0.593384L23.7222 7.59338V18.5934C23.7222 19.1238 23.5115 19.6325 23.1364 20.0076C22.7613 20.3827 22.2526 20.5934 21.7222 20.5934H7.72217C7.19173 20.5934 6.68303 20.3827 6.30795 20.0076C5.93288 19.6325 5.72217 19.1238 5.72217 18.5934V7.59338Z" stroke="#007AFF" stroke-linecap="round" stroke-linejoin="round"/>
</svg>
